<?xml version="1.0" encoding="utf-8" standalone="no"?>
<!DOCTYPE svg PUBLIC "-//W3C//DTD SVG 1.1//EN"
  "http://www.w3.org/Graphics/SVG/1.1/DTD/svg11.dtd">
<svg xmlns:xlink="http://www.w3.org/1999/xlink" width="1001.52pt" height="564.48pt" viewBox="0 0 1001.52 564.48" xmlns="http://www.w3.org/2000/svg" version="1.1">
 <metadata>
  <rdf:RDF xmlns:dc="http://purl.org/dc/elements/1.1/" xmlns:cc="http://creativecommons.org/ns#" xmlns:rdf="http://www.w3.org/1999/02/22-rdf-syntax-ns#">
   <cc:Work>
    <dc:type rdf:resource="http://purl.org/dc/dcmitype/StillImage"/>
    <dc:date>2025-08-18T02:53:36.180159</dc:date>
    <dc:format>image/svg+xml</dc:format>
    <dc:creator>
     <cc:Agent>
      <dc:title>Matplotlib v3.10.3, https://matplotlib.org/</dc:title>
     </cc:Agent>
    </dc:creator>
   </cc:Work>
  </rdf:RDF>
 </metadata>
 <defs>
  <style type="text/css">*{stroke-linejoin: round; stroke-linecap: butt}</style>
 </defs>
 <g id="figure_1">
  <g id="patch_1">
   <path d="M 0 564.48 
L 1001.52 564.48 
L 1001.52 0 
L 0 0 
z
" style="fill: #ffffff"/>
  </g>
  <g id="axes_1">
   <g id="patch_2">
    <path d="M 125.19 502.3872 
L 901.368 502.3872 
L 901.368 67.7376 
L 125.19 67.7376 
z
" style="fill: #ffffff"/>
   </g>
   <g id="matplotlib.axis_1">
    <g id="xtick_1">
     <g id="line2d_1">
      <defs>
       <path id="m8445eb1020" d="M 0 0 
L 0 3.5 
" style="stroke: #000000; stroke-width: 0.8"/>
      </defs>
      <g>
       <use xlink:href="#m8445eb1020" x="137.705592" y="502.3872" style="stroke: #000000; stroke-width: 0.8"/>
      </g>
     </g>
     <g id="text_1">
      <!-- R60 -->
      <g transform="translate(122.32381 528.671328) rotate(-45) scale(0.1 -0.1)">
       <defs>
        <path id="DejaVuSans-52" d="M 2841 2188 
Q 3044 2119 3236 1894 
Q 3428 1669 3622 1275 
L 4263 0 
L 3584 0 
L 2988 1197 
Q 2756 1666 2539 1819 
Q 2322 1972 1947 1972 
L 1259 1972 
L 1259 0 
L 628 0 
L 628 4666 
L 2053 4666 
Q 2853 4666 3247 4331 
Q 3641 3997 3641 3322 
Q 3641 2881 3436 2590 
Q 3231 2300 2841 2188 
z
M 1259 4147 
L 1259 2491 
L 2053 2491 
Q 2509 2491 2742 2702 
Q 2975 2913 2975 3322 
Q 2975 3731 2742 3939 
Q 2509 4147 2053 4147 
L 1259 4147 
z
" transform="scale(0.015625)"/>
        <path id="DejaVuSans-36" d="M 2113 2584 
Q 1688 2584 1439 2293 
Q 1191 2003 1191 1497 
Q 1191 994 1439 701 
Q 1688 409 2113 409 
Q 2538 409 2786 701 
Q 3034 994 3034 1497 
Q 3034 2003 2786 2293 
Q 2538 2584 2113 2584 
z
M 3366 4563 
L 3366 3988 
Q 3128 4100 2886 4159 
Q 2644 4219 2406 4219 
Q 1781 4219 1451 3797 
Q 1122 3375 1075 2522 
Q 1259 2794 1537 2939 
Q 1816 3084 2150 3084 
Q 2853 3084 3261 2657 
Q 3669 2231 3669 1497 
Q 3669 778 3244 343 
Q 2819 -91 2113 -91 
Q 1303 -91 875 529 
Q 447 1150 447 2328 
Q 447 3434 972 4092 
Q 1497 4750 2381 4750 
Q 2619 4750 2861 4703 
Q 3103 4656 3366 4563 
z
" transform="scale(0.015625)"/>
        <path id="DejaVuSans-30" d="M 2034 4250 
Q 1547 4250 1301 3770 
Q 1056 3291 1056 2328 
Q 1056 1369 1301 889 
Q 1547 409 2034 409 
Q 2525 409 2770 889 
Q 3016 1369 3016 2328 
Q 3016 3291 2770 3770 
Q 2525 4250 2034 4250 
z
M 2034 4750 
Q 2819 4750 3233 4129 
Q 3647 3509 3647 2328 
Q 3647 1150 3233 529 
Q 2819 -91 2034 -91 
Q 1250 -91 836 529 
Q 422 1150 422 2328 
Q 422 3509 836 4129 
Q 1250 4750 2034 4750 
z
" transform="scale(0.015625)"/>
       </defs>
       <use xlink:href="#DejaVuSans-52"/>
       <use xlink:href="#DejaVuSans-36" transform="translate(69.482422 0)"/>
       <use xlink:href="#DejaVuSans-30" transform="translate(133.105469 0)"/>
      </g>
     </g>
    </g>
    <g id="xtick_2">
     <g id="line2d_2">
      <g>
       <use xlink:href="#m8445eb1020" x="397.601485" y="502.3872" style="stroke: #000000; stroke-width: 0.8"/>
      </g>
     </g>
     <g id="text_2">
      <!-- R80 -->
      <g transform="translate(382.219703 528.671328) rotate(-45) scale(0.1 -0.1)">
       <defs>
        <path id="DejaVuSans-38" d="M 2034 2216 
Q 1584 2216 1326 1975 
Q 1069 1734 1069 1313 
Q 1069 891 1326 650 
Q 1584 409 2034 409 
Q 2484 409 2743 651 
Q 3003 894 3003 1313 
Q 3003 1734 2745 1975 
Q 2488 2216 2034 2216 
z
M 1403 2484 
Q 997 2584 770 2862 
Q 544 3141 544 3541 
Q 544 4100 942 4425 
Q 1341 4750 2034 4750 
Q 2731 4750 3128 4425 
Q 3525 4100 3525 3541 
Q 3525 3141 3298 2862 
Q 3072 2584 2669 2484 
Q 3125 2378 3379 2068 
Q 3634 1759 3634 1313 
Q 3634 634 3220 271 
Q 2806 -91 2034 -91 
Q 1263 -91 848 271 
Q 434 634 434 1313 
Q 434 1759 690 2068 
Q 947 2378 1403 2484 
z
M 1172 3481 
Q 1172 3119 1398 2916 
Q 1625 2713 2034 2713 
Q 2441 2713 2670 2916 
Q 2900 3119 2900 3481 
Q 2900 3844 2670 4047 
Q 2441 4250 2034 4250 
Q 1625 4250 1398 4047 
Q 1172 3844 1172 3481 
z
" transform="scale(0.015625)"/>
       </defs>
       <use xlink:href="#DejaVuSans-52"/>
       <use xlink:href="#DejaVuSans-38" transform="translate(69.482422 0)"/>
       <use xlink:href="#DejaVuSans-30" transform="translate(133.105469 0)"/>
      </g>
     </g>
    </g>
    <g id="xtick_3">
     <g id="line2d_3">
      <g>
       <use xlink:href="#m8445eb1020" x="657.497377" y="502.3872" style="stroke: #000000; stroke-width: 0.8"/>
      </g>
     </g>
     <g id="text_3">
      <!-- R100 -->
      <g transform="translate(637.616628 533.170295) rotate(-45) scale(0.1 -0.1)">
       <defs>
        <path id="DejaVuSans-31" d="M 794 531 
L 1825 531 
L 1825 4091 
L 703 3866 
L 703 4441 
L 1819 4666 
L 2450 4666 
L 2450 531 
L 3481 531 
L 3481 0 
L 794 0 
L 794 531 
z
" transform="scale(0.015625)"/>
       </defs>
       <use xlink:href="#DejaVuSans-52"/>
       <use xlink:href="#DejaVuSans-31" transform="translate(69.482422 0)"/>
       <use xlink:href="#DejaVuSans-30" transform="translate(133.105469 0)"/>
       <use xlink:href="#DejaVuSans-30" transform="translate(196.728516 0)"/>
      </g>
     </g>
    </g>
    <g id="text_4">
     <!-- Step along Path -->
     <g transform="translate(473.877437 546.239293) scale(0.1 -0.1)">
      <defs>
       <path id="DejaVuSans-53" d="M 3425 4513 
L 3425 3897 
Q 3066 4069 2747 4153 
Q 2428 4238 2131 4238 
Q 1616 4238 1336 4038 
Q 1056 3838 1056 3469 
Q 1056 3159 1242 3001 
Q 1428 2844 1947 2747 
L 2328 2669 
Q 3034 2534 3370 2195 
Q 3706 1856 3706 1288 
Q 3706 609 3251 259 
Q 2797 -91 1919 -91 
Q 1588 -91 1214 -16 
Q 841 59 441 206 
L 441 856 
Q 825 641 1194 531 
Q 1563 422 1919 422 
Q 2459 422 2753 634 
Q 3047 847 3047 1241 
Q 3047 1584 2836 1778 
Q 2625 1972 2144 2069 
L 1759 2144 
Q 1053 2284 737 2584 
Q 422 2884 422 3419 
Q 422 4038 858 4394 
Q 1294 4750 2059 4750 
Q 2388 4750 2728 4690 
Q 3069 4631 3425 4513 
z
" transform="scale(0.015625)"/>
       <path id="DejaVuSans-74" d="M 1172 4494 
L 1172 3500 
L 2356 3500 
L 2356 3053 
L 1172 3053 
L 1172 1153 
Q 1172 725 1289 603 
Q 1406 481 1766 481 
L 2356 481 
L 2356 0 
L 1766 0 
Q 1100 0 847 248 
Q 594 497 594 1153 
L 594 3053 
L 172 3053 
L 172 3500 
L 594 3500 
L 594 4494 
L 1172 4494 
z
" transform="scale(0.015625)"/>
       <path id="DejaVuSans-65" d="M 3597 1894 
L 3597 1613 
L 953 1613 
Q 991 1019 1311 708 
Q 1631 397 2203 397 
Q 2534 397 2845 478 
Q 3156 559 3463 722 
L 3463 178 
Q 3153 47 2828 -22 
Q 2503 -91 2169 -91 
Q 1331 -91 842 396 
Q 353 884 353 1716 
Q 353 2575 817 3079 
Q 1281 3584 2069 3584 
Q 2775 3584 3186 3129 
Q 3597 2675 3597 1894 
z
M 3022 2063 
Q 3016 2534 2758 2815 
Q 2500 3097 2075 3097 
Q 1594 3097 1305 2825 
Q 1016 2553 972 2059 
L 3022 2063 
z
" transform="scale(0.015625)"/>
       <path id="DejaVuSans-70" d="M 1159 525 
L 1159 -1331 
L 581 -1331 
L 581 3500 
L 1159 3500 
L 1159 2969 
Q 1341 3281 1617 3432 
Q 1894 3584 2278 3584 
Q 2916 3584 3314 3078 
Q 3713 2572 3713 1747 
Q 3713 922 3314 415 
Q 2916 -91 2278 -91 
Q 1894 -91 1617 61 
Q 1341 213 1159 525 
z
M 3116 1747 
Q 3116 2381 2855 2742 
Q 2594 3103 2138 3103 
Q 1681 3103 1420 2742 
Q 1159 2381 1159 1747 
Q 1159 1113 1420 752 
Q 1681 391 2138 391 
Q 2594 391 2855 752 
Q 3116 1113 3116 1747 
z
" transform="scale(0.015625)"/>
       <path id="DejaVuSans-20" transform="scale(0.015625)"/>
       <path id="DejaVuSans-61" d="M 2194 1759 
Q 1497 1759 1228 1600 
Q 959 1441 959 1056 
Q 959 750 1161 570 
Q 1363 391 1709 391 
Q 2188 391 2477 730 
Q 2766 1069 2766 1631 
L 2766 1759 
L 2194 1759 
z
M 3341 1997 
L 3341 0 
L 2766 0 
L 2766 531 
Q 2569 213 2275 61 
Q 1981 -91 1556 -91 
Q 1019 -91 701 211 
Q 384 513 384 1019 
Q 384 1609 779 1909 
Q 1175 2209 1959 2209 
L 2766 2209 
L 2766 2266 
Q 2766 2663 2505 2880 
Q 2244 3097 1772 3097 
Q 1472 3097 1187 3025 
Q 903 2953 641 2809 
L 641 3341 
Q 956 3463 1253 3523 
Q 1550 3584 1831 3584 
Q 2591 3584 2966 3190 
Q 3341 2797 3341 1997 
z
" transform="scale(0.015625)"/>
       <path id="DejaVuSans-6c" d="M 603 4863 
L 1178 4863 
L 1178 0 
L 603 0 
L 603 4863 
z
" transform="scale(0.015625)"/>
       <path id="DejaVuSans-6f" d="M 1959 3097 
Q 1497 3097 1228 2736 
Q 959 2375 959 1747 
Q 959 1119 1226 758 
Q 1494 397 1959 397 
Q 2419 397 2687 759 
Q 2956 1122 2956 1747 
Q 2956 2369 2687 2733 
Q 2419 3097 1959 3097 
z
M 1959 3584 
Q 2709 3584 3137 3096 
Q 3566 2609 3566 1747 
Q 3566 888 3137 398 
Q 2709 -91 1959 -91 
Q 1206 -91 779 398 
Q 353 888 353 1747 
Q 353 2609 779 3096 
Q 1206 3584 1959 3584 
z
" transform="scale(0.015625)"/>
       <path id="DejaVuSans-6e" d="M 3513 2113 
L 3513 0 
L 2938 0 
L 2938 2094 
Q 2938 2591 2744 2837 
Q 2550 3084 2163 3084 
Q 1697 3084 1428 2787 
Q 1159 2491 1159 1978 
L 1159 0 
L 581 0 
L 581 3500 
L 1159 3500 
L 1159 2956 
Q 1366 3272 1645 3428 
Q 1925 3584 2291 3584 
Q 2894 3584 3203 3211 
Q 3513 2838 3513 2113 
z
" transform="scale(0.015625)"/>
       <path id="DejaVuSans-67" d="M 2906 1791 
Q 2906 2416 2648 2759 
Q 2391 3103 1925 3103 
Q 1463 3103 1205 2759 
Q 947 2416 947 1791 
Q 947 1169 1205 825 
Q 1463 481 1925 481 
Q 2391 481 2648 825 
Q 2906 1169 2906 1791 
z
M 3481 434 
Q 3481 -459 3084 -895 
Q 2688 -1331 1869 -1331 
Q 1566 -1331 1297 -1286 
Q 1028 -1241 775 -1147 
L 775 -588 
Q 1028 -725 1275 -790 
Q 1522 -856 1778 -856 
Q 2344 -856 2625 -561 
Q 2906 -266 2906 331 
L 2906 616 
Q 2728 306 2450 153 
Q 2172 0 1784 0 
Q 1141 0 747 490 
Q 353 981 353 1791 
Q 353 2603 747 3093 
Q 1141 3584 1784 3584 
Q 2172 3584 2450 3431 
Q 2728 3278 2906 2969 
L 2906 3500 
L 3481 3500 
L 3481 434 
z
" transform="scale(0.015625)"/>
       <path id="DejaVuSans-50" d="M 1259 4147 
L 1259 2394 
L 2053 2394 
Q 2494 2394 2734 2622 
Q 2975 2850 2975 3272 
Q 2975 3691 2734 3919 
Q 2494 4147 2053 4147 
L 1259 4147 
z
M 628 4666 
L 2053 4666 
Q 2838 4666 3239 4311 
Q 3641 3956 3641 3272 
Q 3641 2581 3239 2228 
Q 2838 1875 2053 1875 
L 1259 1875 
L 1259 0 
L 628 0 
L 628 4666 
z
" transform="scale(0.015625)"/>
       <path id="DejaVuSans-68" d="M 3513 2113 
L 3513 0 
L 2938 0 
L 2938 2094 
Q 2938 2591 2744 2837 
Q 2550 3084 2163 3084 
Q 1697 3084 1428 2787 
Q 1159 2491 1159 1978 
L 1159 0 
L 581 0 
L 581 4863 
L 1159 4863 
L 1159 2956 
Q 1366 3272 1645 3428 
Q 1925 3584 2291 3584 
Q 2894 3584 3203 3211 
Q 3513 2838 3513 2113 
z
" transform="scale(0.015625)"/>
      </defs>
      <use xlink:href="#DejaVuSans-53"/>
      <use xlink:href="#DejaVuSans-74" transform="translate(63.476562 0)"/>
      <use xlink:href="#DejaVuSans-65" transform="translate(102.685547 0)"/>
      <use xlink:href="#DejaVuSans-70" transform="translate(164.208984 0)"/>
      <use xlink:href="#DejaVuSans-20" transform="translate(227.685547 0)"/>
      <use xlink:href="#DejaVuSans-61" transform="translate(259.472656 0)"/>
      <use xlink:href="#DejaVuSans-6c" transform="translate(320.751953 0)"/>
      <use xlink:href="#DejaVuSans-6f" transform="translate(348.535156 0)"/>
      <use xlink:href="#DejaVuSans-6e" transform="translate(409.716797 0)"/>
      <use xlink:href="#DejaVuSans-67" transform="translate(473.095703 0)"/>
      <use xlink:href="#DejaVuSans-20" transform="translate(536.572266 0)"/>
      <use xlink:href="#DejaVuSans-50" transform="translate(568.359375 0)"/>
      <use xlink:href="#DejaVuSans-61" transform="translate(624.162109 0)"/>
      <use xlink:href="#DejaVuSans-74" transform="translate(685.441406 0)"/>
      <use xlink:href="#DejaVuSans-68" transform="translate(724.650391 0)"/>
     </g>
    </g>
   </g>
   <g id="matplotlib.axis_2">
    <g id="ytick_1">
     <g id="line2d_4">
      <defs>
       <path id="m3ba5c15cbe" d="M 0 0 
L -3.5 0 
" style="stroke: #000000; stroke-width: 0.8"/>
      </defs>
      <g>
       <use xlink:href="#m3ba5c15cbe" x="125.19" y="492.31516" style="stroke: #000000; stroke-width: 0.8"/>
      </g>
     </g>
     <g id="text_5">
      <!-- 50 -->
      <g transform="translate(105.465 496.114379) scale(0.1 -0.1)">
       <defs>
        <path id="DejaVuSans-35" d="M 691 4666 
L 3169 4666 
L 3169 4134 
L 1269 4134 
L 1269 2991 
Q 1406 3038 1543 3061 
Q 1681 3084 1819 3084 
Q 2600 3084 3056 2656 
Q 3513 2228 3513 1497 
Q 3513 744 3044 326 
Q 2575 -91 1722 -91 
Q 1428 -91 1123 -41 
Q 819 9 494 109 
L 494 744 
Q 775 591 1075 516 
Q 1375 441 1709 441 
Q 2250 441 2565 725 
Q 2881 1009 2881 1497 
Q 2881 1984 2565 2268 
Q 2250 2553 1709 2553 
Q 1456 2553 1204 2497 
Q 953 2441 691 2322 
L 691 4666 
z
" transform="scale(0.015625)"/>
       </defs>
       <use xlink:href="#DejaVuSans-35"/>
       <use xlink:href="#DejaVuSans-30" transform="translate(63.623047 0)"/>
      </g>
     </g>
    </g>
    <g id="ytick_2">
     <g id="line2d_5">
      <g>
       <use xlink:href="#m3ba5c15cbe" x="125.19" y="437.100179" style="stroke: #000000; stroke-width: 0.8"/>
      </g>
     </g>
     <g id="text_6">
      <!-- 75 -->
      <g transform="translate(105.465 440.899397) scale(0.1 -0.1)">
       <defs>
        <path id="DejaVuSans-37" d="M 525 4666 
L 3525 4666 
L 3525 4397 
L 1831 0 
L 1172 0 
L 2766 4134 
L 525 4134 
L 525 4666 
z
" transform="scale(0.015625)"/>
       </defs>
       <use xlink:href="#DejaVuSans-37"/>
       <use xlink:href="#DejaVuSans-35" transform="translate(63.623047 0)"/>
      </g>
     </g>
    </g>
    <g id="ytick_3">
     <g id="line2d_6">
      <g>
       <use xlink:href="#m3ba5c15cbe" x="125.19" y="381.885197" style="stroke: #000000; stroke-width: 0.8"/>
      </g>
     </g>
     <g id="text_7">
      <!-- 100 -->
      <g transform="translate(99.1025 385.684416) scale(0.1 -0.1)">
       <use xlink:href="#DejaVuSans-31"/>
       <use xlink:href="#DejaVuSans-30" transform="translate(63.623047 0)"/>
       <use xlink:href="#DejaVuSans-30" transform="translate(127.246094 0)"/>
      </g>
     </g>
    </g>
    <g id="ytick_4">
     <g id="line2d_7">
      <g>
       <use xlink:href="#m3ba5c15cbe" x="125.19" y="326.670216" style="stroke: #000000; stroke-width: 0.8"/>
      </g>
     </g>
     <g id="text_8">
      <!-- 125 -->
      <g transform="translate(99.1025 330.469435) scale(0.1 -0.1)">
       <defs>
        <path id="DejaVuSans-32" d="M 1228 531 
L 3431 531 
L 3431 0 
L 469 0 
L 469 531 
Q 828 903 1448 1529 
Q 2069 2156 2228 2338 
Q 2531 2678 2651 2914 
Q 2772 3150 2772 3378 
Q 2772 3750 2511 3984 
Q 2250 4219 1831 4219 
Q 1534 4219 1204 4116 
Q 875 4013 500 3803 
L 500 4441 
Q 881 4594 1212 4672 
Q 1544 4750 1819 4750 
Q 2544 4750 2975 4387 
Q 3406 4025 3406 3419 
Q 3406 3131 3298 2873 
Q 3191 2616 2906 2266 
Q 2828 2175 2409 1742 
Q 1991 1309 1228 531 
z
" transform="scale(0.015625)"/>
       </defs>
       <use xlink:href="#DejaVuSans-31"/>
       <use xlink:href="#DejaVuSans-32" transform="translate(63.623047 0)"/>
       <use xlink:href="#DejaVuSans-35" transform="translate(127.246094 0)"/>
      </g>
     </g>
    </g>
    <g id="ytick_5">
     <g id="line2d_8">
      <g>
       <use xlink:href="#m3ba5c15cbe" x="125.19" y="271.455234" style="stroke: #000000; stroke-width: 0.8"/>
      </g>
     </g>
     <g id="text_9">
      <!-- 150 -->
      <g transform="translate(99.1025 275.254453) scale(0.1 -0.1)">
       <use xlink:href="#DejaVuSans-31"/>
       <use xlink:href="#DejaVuSans-35" transform="translate(63.623047 0)"/>
       <use xlink:href="#DejaVuSans-30" transform="translate(127.246094 0)"/>
      </g>
     </g>
    </g>
    <g id="ytick_6">
     <g id="line2d_9">
      <g>
       <use xlink:href="#m3ba5c15cbe" x="125.19" y="216.240253" style="stroke: #000000; stroke-width: 0.8"/>
      </g>
     </g>
     <g id="text_10">
      <!-- 175 -->
      <g transform="translate(99.1025 220.039472) scale(0.1 -0.1)">
       <use xlink:href="#DejaVuSans-31"/>
       <use xlink:href="#DejaVuSans-37" transform="translate(63.623047 0)"/>
       <use xlink:href="#DejaVuSans-35" transform="translate(127.246094 0)"/>
      </g>
     </g>
    </g>
    <g id="ytick_7">
     <g id="line2d_10">
      <g>
       <use xlink:href="#m3ba5c15cbe" x="125.19" y="161.025271" style="stroke: #000000; stroke-width: 0.8"/>
      </g>
     </g>
     <g id="text_11">
      <!-- 200 -->
      <g transform="translate(99.1025 164.82449) scale(0.1 -0.1)">
       <use xlink:href="#DejaVuSans-32"/>
       <use xlink:href="#DejaVuSans-30" transform="translate(63.623047 0)"/>
       <use xlink:href="#DejaVuSans-30" transform="translate(127.246094 0)"/>
      </g>
     </g>
    </g>
    <g id="ytick_8">
     <g id="line2d_11">
      <g>
       <use xlink:href="#m3ba5c15cbe" x="125.19" y="105.81029" style="stroke: #000000; stroke-width: 0.8"/>
      </g>
     </g>
     <g id="text_12">
      <!-- 225 -->
      <g transform="translate(99.1025 109.609509) scale(0.1 -0.1)">
       <use xlink:href="#DejaVuSans-32"/>
       <use xlink:href="#DejaVuSans-32" transform="translate(63.623047 0)"/>
       <use xlink:href="#DejaVuSans-35" transform="translate(127.246094 0)"/>
      </g>
     </g>
    </g>
    <g id="text_13">
     <!-- Part Value -->
     <g transform="translate(93.022812 310.252244) rotate(-90) scale(0.1 -0.1)">
      <defs>
       <path id="DejaVuSans-72" d="M 2631 2963 
Q 2534 3019 2420 3045 
Q 2306 3072 2169 3072 
Q 1681 3072 1420 2755 
Q 1159 2438 1159 1844 
L 1159 0 
L 581 0 
L 581 3500 
L 1159 3500 
L 1159 2956 
Q 1341 3275 1631 3429 
Q 1922 3584 2338 3584 
Q 2397 3584 2469 3576 
Q 2541 3569 2628 3553 
L 2631 2963 
z
" transform="scale(0.015625)"/>
       <path id="DejaVuSans-56" d="M 1831 0 
L 50 4666 
L 709 4666 
L 2188 738 
L 3669 4666 
L 4325 4666 
L 2547 0 
L 1831 0 
z
" transform="scale(0.015625)"/>
       <path id="DejaVuSans-75" d="M 544 1381 
L 544 3500 
L 1119 3500 
L 1119 1403 
Q 1119 906 1312 657 
Q 1506 409 1894 409 
Q 2359 409 2629 706 
Q 2900 1003 2900 1516 
L 2900 3500 
L 3475 3500 
L 3475 0 
L 2900 0 
L 2900 538 
Q 2691 219 2414 64 
Q 2138 -91 1772 -91 
Q 1169 -91 856 284 
Q 544 659 544 1381 
z
M 1991 3584 
L 1991 3584 
z
" transform="scale(0.015625)"/>
      </defs>
      <use xlink:href="#DejaVuSans-50"/>
      <use xlink:href="#DejaVuSans-61" transform="translate(55.802734 0)"/>
      <use xlink:href="#DejaVuSans-72" transform="translate(117.082031 0)"/>
      <use xlink:href="#DejaVuSans-74" transform="translate(158.195312 0)"/>
      <use xlink:href="#DejaVuSans-20" transform="translate(197.404297 0)"/>
      <use xlink:href="#DejaVuSans-56" transform="translate(229.191406 0)"/>
      <use xlink:href="#DejaVuSans-61" transform="translate(289.849609 0)"/>
      <use xlink:href="#DejaVuSans-6c" transform="translate(351.128906 0)"/>
      <use xlink:href="#DejaVuSans-75" transform="translate(378.912109 0)"/>
      <use xlink:href="#DejaVuSans-65" transform="translate(442.291016 0)"/>
     </g>
    </g>
   </g>
   <g id="line2d_12">
    <path d="M -1 144.124783 
L 7.757646 141.147878 
L 20.752441 138.939279 
L 33.747236 138.939279 
L 46.74203 134.52208 
L 59.736825 123.479084 
L 72.731619 105.81029 
L 85.726414 96.975893 
L 98.721209 94.767294 
L 111.716003 81.515698 
L 124.710798 81.515698 
L 137.705592 59.429705 
L 150.700387 57.221106 
L 176.689976 21.883518 
L 189.684771 21.883518 
L 202.679566 17.46632 
L 215.67436 15.25772 
L 228.669155 15.25772 
L 239.297597 -1 
L 239.297597 -1 
" clip-path="url(#p378671b0cf)" style="fill: none; stroke: #000000; stroke-linecap: square"/>
   </g>
   <g id="line2d_13">
    <path d="M -1 351.733113 
L 20.752441 344.33901 
L 33.747236 342.130411 
L 46.74203 342.130411 
L 59.736825 339.921811 
L 72.731619 339.921811 
L 85.726414 317.835819 
L 98.721209 309.001422 
L 124.710798 309.001422 
L 137.705592 306.792822 
L 150.700387 306.792822 
L 163.695182 304.584223 
L 189.684771 304.584223 
L 202.679566 300.167025 
L 228.669155 300.167025 
L 241.663949 295.749826 
L 254.658744 295.749826 
L 267.653539 278.081032 
L 280.648333 275.872433 
L 293.643128 271.455234 
L 306.637922 269.246635 
L 319.632717 249.369242 
L 345.622306 249.369242 
L 358.617101 240.534845 
L 371.611896 240.534845 
L 384.60669 236.117646 
L 423.591074 236.117646 
L 436.585869 231.700448 
L 449.580663 225.07465 
L 462.575458 225.07465 
L 475.570252 222.866051 
L 488.565047 222.866051 
L 514.554636 214.031654 
L 527.549431 211.823054 
L 540.544226 207.405856 
L 553.53902 205.197257 
L 605.518199 205.197257 
L 618.512993 202.988657 
L 696.481761 202.988657 
L 709.476556 205.197257 
L 761.455734 205.197257 
L 774.450529 207.405856 
L 787.445323 211.823054 
L 800.440118 214.031654 
L 826.429707 222.866051 
L 839.424502 222.866051 
L 852.419296 225.07465 
L 865.414091 225.07465 
L 878.408886 231.700448 
L 891.40368 236.117646 
L 930.388064 236.117646 
L 943.382859 240.534845 
L 956.377653 240.534845 
L 969.372448 249.369242 
L 995.362037 249.369242 
L 1002.52 260.318368 
L 1002.52 260.318368 
" clip-path="url(#p378671b0cf)" style="fill: none; stroke: #000000; stroke-linecap: square"/>
   </g>
   <g id="line2d_14">
    <path d="M -1 359.799205 
L 33.747236 359.799205 
L 46.74203 357.590605 
L 59.736825 350.964808 
L 85.726414 350.964808 
L 98.721209 348.756208 
L 111.716003 348.756208 
L 137.705592 344.33901 
L 150.700387 322.253017 
L 163.695182 322.253017 
L 176.689976 320.044418 
L 189.684771 320.044418 
L 202.679566 317.835819 
L 215.67436 317.835819 
L 228.669155 313.41862 
L 241.663949 311.210021 
L 254.658744 311.210021 
L 267.653539 304.584223 
L 293.643128 300.167025 
L 306.637922 295.749826 
L 319.632717 293.541227 
L 332.627512 289.124028 
L 345.622306 280.289631 
L 358.617101 275.872433 
L 371.611896 275.872433 
L 384.60669 271.455234 
L 410.596279 267.038036 
L 423.591074 267.038036 
L 462.575458 253.78644 
L 475.570252 253.78644 
L 501.559842 244.952043 
L 514.554636 231.700448 
L 527.549431 231.700448 
L 540.544226 225.07465 
L 553.53902 225.07465 
L 566.533815 214.031654 
L 579.528609 209.614455 
L 592.523404 207.405856 
L 605.518199 207.405856 
L 618.512993 205.197257 
L 644.502582 205.197257 
L 657.497377 202.988657 
L 670.492172 205.197257 
L 696.481761 205.197257 
L 709.476556 207.405856 
L 722.47135 207.405856 
L 735.466145 209.614455 
L 748.460939 214.031654 
L 761.455734 225.07465 
L 774.450529 225.07465 
L 787.445323 231.700448 
L 800.440118 231.700448 
L 813.434913 244.952043 
L 839.424502 253.78644 
L 852.419296 253.78644 
L 891.40368 267.038036 
L 904.398475 267.038036 
L 930.388064 271.455234 
L 943.382859 275.872433 
L 956.377653 275.872433 
L 969.372448 280.289631 
L 982.367243 289.124028 
L 995.362037 293.541227 
L 1002.52 294.757796 
L 1002.52 294.757796 
" clip-path="url(#p378671b0cf)" style="fill: none; stroke: #000000; stroke-linecap: square"/>
   </g>
   <g id="line2d_15">
    <path d="M -1 367.913455 
L 7.757646 366.425002 
L 46.74203 366.425002 
L 59.736825 359.799205 
L 72.731619 355.382006 
L 124.710798 355.382006 
L 137.705592 350.964808 
L 150.700387 350.964808 
L 163.695182 348.756208 
L 176.689976 337.713212 
L 202.679566 337.713212 
L 215.67436 335.504613 
L 228.669155 335.504613 
L 241.663949 333.296014 
L 254.658744 333.296014 
L 267.653539 324.461617 
L 306.637922 324.461617 
L 345.622306 317.835819 
L 358.617101 317.835819 
L 371.611896 313.41862 
L 384.60669 300.167025 
L 410.596279 300.167025 
L 423.591074 297.958425 
L 475.570252 297.958425 
L 514.554636 284.70683 
L 553.53902 284.70683 
L 566.533815 282.498231 
L 579.528609 282.498231 
L 592.523404 275.872433 
L 722.47135 275.872433 
L 735.466145 282.498231 
L 748.460939 282.498231 
L 761.455734 284.70683 
L 800.440118 284.70683 
L 839.424502 297.958425 
L 891.40368 297.958425 
L 904.398475 300.167025 
L 930.388064 300.167025 
L 943.382859 313.41862 
L 956.377653 317.835819 
L 969.372448 317.835819 
L 1002.52 323.469587 
L 1002.52 323.469587 
" clip-path="url(#p378671b0cf)" style="fill: none; stroke: #000000; stroke-linecap: square"/>
   </g>
   <g id="line2d_16">
    <path d="M -1 390.719594 
L 7.757646 390.719594 
L 20.752441 384.093797 
L 33.747236 381.885197 
L 46.74203 377.467999 
L 59.736825 377.467999 
L 72.731619 375.259399 
L 85.726414 375.259399 
L 111.716003 370.842201 
L 137.705592 370.842201 
L 163.695182 362.007804 
L 176.689976 359.799205 
L 189.684771 359.799205 
L 202.679566 357.590605 
L 215.67436 357.590605 
L 228.669155 355.382006 
L 241.663949 348.756208 
L 254.658744 344.33901 
L 267.653539 342.130411 
L 280.648333 342.130411 
L 293.643128 337.713212 
L 319.632717 337.713212 
L 332.627512 335.504613 
L 358.617101 335.504613 
L 371.611896 324.461617 
L 410.596279 324.461617 
L 423.591074 322.253017 
L 449.580663 322.253017 
L 475.570252 317.835819 
L 501.559842 309.001422 
L 514.554636 309.001422 
L 527.549431 306.792822 
L 540.544226 306.792822 
L 553.53902 304.584223 
L 566.533815 289.124028 
L 579.528609 289.124028 
L 592.523404 284.70683 
L 605.518199 278.081032 
L 631.507788 278.081032 
L 644.502582 275.872433 
L 670.492172 275.872433 
L 683.486966 278.081032 
L 709.476556 278.081032 
L 722.47135 284.70683 
L 735.466145 289.124028 
L 748.460939 289.124028 
L 761.455734 304.584223 
L 774.450529 306.792822 
L 787.445323 306.792822 
L 800.440118 309.001422 
L 813.434913 309.001422 
L 839.424502 317.835819 
L 865.414091 322.253017 
L 891.40368 322.253017 
L 904.398475 324.461617 
L 943.382859 324.461617 
L 956.377653 335.504613 
L 982.367243 335.504613 
L 995.362037 337.713212 
L 1002.52 337.713212 
L 1002.52 337.713212 
" clip-path="url(#p378671b0cf)" style="fill: none; stroke: #000000; stroke-linecap: square"/>
   </g>
   <g id="line2d_17">
    <path d="M -1 399.553991 
L 20.752441 399.553991 
L 33.747236 395.136793 
L 59.736825 395.136793 
L 72.731619 388.510995 
L 98.721209 384.093797 
L 111.716003 379.676598 
L 124.710798 379.676598 
L 137.705592 377.467999 
L 150.700387 377.467999 
L 163.695182 368.633602 
L 176.689976 366.425002 
L 189.684771 366.425002 
L 215.67436 362.007804 
L 228.669155 362.007804 
L 241.663949 359.799205 
L 254.658744 359.799205 
L 267.653539 357.590605 
L 280.648333 353.173407 
L 293.643128 344.33901 
L 306.637922 344.33901 
L 319.632717 342.130411 
L 384.60669 342.130411 
L 397.601485 339.921811 
L 423.591074 339.921811 
L 436.585869 335.504613 
L 475.570252 335.504613 
L 488.565047 331.087414 
L 501.559842 331.087414 
L 514.554636 328.878815 
L 527.549431 328.878815 
L 540.544226 322.253017 
L 553.53902 317.835819 
L 579.528609 313.41862 
L 735.466145 313.41862 
L 761.455734 317.835819 
L 774.450529 322.253017 
L 787.445323 328.878815 
L 800.440118 328.878815 
L 813.434913 331.087414 
L 826.429707 331.087414 
L 839.424502 335.504613 
L 878.408886 335.504613 
L 891.40368 339.921811 
L 917.393269 339.921811 
L 930.388064 342.130411 
L 995.362037 342.130411 
L 1002.52 343.34698 
L 1002.52 343.34698 
" clip-path="url(#p378671b0cf)" style="fill: none; stroke: #000000; stroke-linecap: square"/>
   </g>
   <g id="line2d_18">
    <path d="M -1 406.179789 
L 7.757646 406.179789 
L 20.752441 401.762591 
L 46.74203 401.762591 
L 59.736825 397.345392 
L 72.731619 395.136793 
L 85.726414 390.719594 
L 98.721209 390.719594 
L 111.716003 386.302396 
L 163.695182 386.302396 
L 176.689976 381.885197 
L 189.684771 379.676598 
L 241.663949 379.676598 
L 254.658744 377.467999 
L 267.653539 377.467999 
L 280.648333 375.259399 
L 293.643128 375.259399 
L 306.637922 373.0508 
L 319.632717 373.0508 
L 345.622306 364.216403 
L 358.617101 364.216403 
L 371.611896 357.590605 
L 397.601485 357.590605 
L 410.596279 346.547609 
L 423.591074 346.547609 
L 436.585869 344.33901 
L 449.580663 344.33901 
L 462.575458 342.130411 
L 488.565047 342.130411 
L 501.559842 335.504613 
L 540.544226 335.504613 
L 553.53902 333.296014 
L 566.533815 333.296014 
L 579.528609 326.670216 
L 592.523404 326.670216 
L 605.518199 320.044418 
L 631.507788 315.627219 
L 644.502582 315.627219 
L 657.497377 313.41862 
L 670.492172 315.627219 
L 683.486966 315.627219 
L 709.476556 320.044418 
L 722.47135 326.670216 
L 735.466145 326.670216 
L 748.460939 333.296014 
L 761.455734 333.296014 
L 774.450529 335.504613 
L 813.434913 335.504613 
L 826.429707 342.130411 
L 852.419296 342.130411 
L 865.414091 344.33901 
L 878.408886 344.33901 
L 891.40368 346.547609 
L 904.398475 346.547609 
L 917.393269 357.590605 
L 943.382859 357.590605 
L 956.377653 364.216403 
L 969.372448 364.216403 
L 995.362037 373.0508 
L 1002.52 373.0508 
L 1002.52 373.0508 
" clip-path="url(#p378671b0cf)" style="fill: none; stroke: #000000; stroke-linecap: square"/>
   </g>
   <g id="line2d_19">
    <path d="M -1 422.408289 
L 7.757646 419.431385 
L 20.752441 419.431385 
L 33.747236 412.805587 
L 46.74203 410.596988 
L 72.731619 410.596988 
L 111.716003 403.97119 
L 124.710798 399.553991 
L 150.700387 399.553991 
L 163.695182 392.928194 
L 189.684771 392.928194 
L 202.679566 390.719594 
L 215.67436 390.719594 
L 228.669155 388.510995 
L 241.663949 388.510995 
L 254.658744 384.093797 
L 293.643128 384.093797 
L 319.632717 379.676598 
L 332.627512 375.259399 
L 384.60669 366.425002 
L 410.596279 366.425002 
L 423.591074 359.799205 
L 436.585869 355.382006 
L 449.580663 353.173407 
L 462.575458 353.173407 
L 475.570252 344.33901 
L 501.559842 344.33901 
L 514.554636 339.921811 
L 553.53902 339.921811 
L 566.533815 335.504613 
L 579.528609 335.504613 
L 592.523404 333.296014 
L 631.507788 333.296014 
L 644.502582 331.087414 
L 670.492172 331.087414 
L 683.486966 333.296014 
L 722.47135 333.296014 
L 735.466145 335.504613 
L 748.460939 335.504613 
L 761.455734 339.921811 
L 800.440118 339.921811 
L 813.434913 344.33901 
L 839.424502 344.33901 
L 852.419296 353.173407 
L 865.414091 353.173407 
L 878.408886 355.382006 
L 891.40368 359.799205 
L 904.398475 366.425002 
L 930.388064 366.425002 
L 982.367243 375.259399 
L 995.362037 379.676598 
L 1002.52 380.893168 
L 1002.52 380.893168 
" clip-path="url(#p378671b0cf)" style="fill: none; stroke: #000000; stroke-linecap: square"/>
   </g>
   <g id="line2d_20">
    <path d="M -1 437.868484 
L 7.757646 434.891579 
L 33.747236 430.474381 
L 46.74203 426.057182 
L 72.731619 421.639984 
L 85.726414 421.639984 
L 98.721209 415.014186 
L 111.716003 410.596988 
L 124.710798 403.97119 
L 137.705592 401.762591 
L 176.689976 401.762591 
L 189.684771 397.345392 
L 215.67436 397.345392 
L 228.669155 392.928194 
L 267.653539 392.928194 
L 280.648333 390.719594 
L 306.637922 390.719594 
L 319.632717 384.093797 
L 332.627512 384.093797 
L 345.622306 381.885197 
L 371.611896 373.0508 
L 384.60669 370.842201 
L 397.601485 370.842201 
L 410.596279 366.425002 
L 423.591074 366.425002 
L 436.585869 364.216403 
L 462.575458 364.216403 
L 475.570252 357.590605 
L 488.565047 357.590605 
L 501.559842 355.382006 
L 514.554636 355.382006 
L 540.544226 346.547609 
L 566.533815 346.547609 
L 579.528609 344.33901 
L 592.523404 339.921811 
L 618.512993 339.921811 
L 631.507788 337.713212 
L 644.502582 337.713212 
L 657.497377 335.504613 
L 670.492172 337.713212 
L 683.486966 337.713212 
L 696.481761 339.921811 
L 722.47135 339.921811 
L 735.466145 344.33901 
L 748.460939 346.547609 
L 774.450529 346.547609 
L 800.440118 355.382006 
L 813.434913 355.382006 
L 826.429707 357.590605 
L 839.424502 357.590605 
L 852.419296 364.216403 
L 878.408886 364.216403 
L 891.40368 366.425002 
L 904.398475 366.425002 
L 917.393269 370.842201 
L 930.388064 370.842201 
L 943.382859 373.0508 
L 969.372448 381.885197 
L 982.367243 384.093797 
L 995.362037 384.093797 
L 1002.52 387.743505 
L 1002.52 387.743505 
" clip-path="url(#p378671b0cf)" style="fill: none; stroke: #000000; stroke-linecap: square"/>
   </g>
   <g id="line2d_21">
    <path d="M -1 448.143175 
L 7.757646 448.143175 
L 20.752441 445.934576 
L 33.747236 441.517377 
L 59.736825 437.100179 
L 85.726414 423.848583 
L 111.716003 423.848583 
L 124.710798 421.639984 
L 137.705592 417.222785 
L 150.700387 410.596988 
L 163.695182 410.596988 
L 176.689976 406.179789 
L 189.684771 406.179789 
L 202.679566 403.97119 
L 215.67436 403.97119 
L 228.669155 401.762591 
L 241.663949 401.762591 
L 254.658744 397.345392 
L 267.653539 397.345392 
L 280.648333 392.928194 
L 293.643128 392.928194 
L 306.637922 390.719594 
L 332.627512 390.719594 
L 345.622306 388.510995 
L 384.60669 388.510995 
L 397.601485 381.885197 
L 436.585869 381.885197 
L 462.575458 377.467999 
L 475.570252 364.216403 
L 527.549431 364.216403 
L 540.544226 355.382006 
L 553.53902 353.173407 
L 566.533815 353.173407 
L 579.528609 348.756208 
L 618.512993 348.756208 
L 631.507788 342.130411 
L 683.486966 342.130411 
L 696.481761 348.756208 
L 735.466145 348.756208 
L 748.460939 353.173407 
L 761.455734 353.173407 
L 774.450529 355.382006 
L 787.445323 364.216403 
L 839.424502 364.216403 
L 852.419296 377.467999 
L 878.408886 381.885197 
L 917.393269 381.885197 
L 930.388064 388.510995 
L 969.372448 388.510995 
L 982.367243 390.719594 
L 1002.52 390.719594 
L 1002.52 390.719594 
" clip-path="url(#p378671b0cf)" style="fill: none; stroke: #000000; stroke-linecap: square"/>
   </g>
   <g id="line2d_22">
    <path d="M -1 461.394771 
L 7.757646 461.394771 
L 20.752441 454.768973 
L 59.736825 441.517377 
L 85.726414 437.100179 
L 111.716003 437.100179 
L 124.710798 432.68298 
L 137.705592 430.474381 
L 150.700387 430.474381 
L 163.695182 428.265782 
L 176.689976 412.805587 
L 189.684771 410.596988 
L 202.679566 410.596988 
L 215.67436 408.388388 
L 254.658744 408.388388 
L 267.653539 406.179789 
L 332.627512 406.179789 
L 345.622306 395.136793 
L 358.617101 395.136793 
L 371.611896 390.719594 
L 462.575458 390.719594 
L 488.565047 386.302396 
L 501.559842 386.302396 
L 514.554636 377.467999 
L 527.549431 377.467999 
L 540.544226 366.425002 
L 592.523404 366.425002 
L 605.518199 362.007804 
L 631.507788 362.007804 
L 644.502582 359.799205 
L 670.492172 359.799205 
L 683.486966 362.007804 
L 709.476556 362.007804 
L 722.47135 366.425002 
L 774.450529 366.425002 
L 787.445323 377.467999 
L 800.440118 377.467999 
L 813.434913 386.302396 
L 826.429707 386.302396 
L 852.419296 390.719594 
L 943.382859 390.719594 
L 956.377653 395.136793 
L 969.372448 395.136793 
L 982.367243 406.179789 
L 1002.52 406.179789 
L 1002.52 406.179789 
" clip-path="url(#p378671b0cf)" style="fill: none; stroke: #000000; stroke-linecap: square"/>
   </g>
   <g id="line2d_23">
    <path d="M -1 476.134818 
L 7.757646 474.646366 
L 20.752441 465.811969 
L 46.74203 465.811969 
L 59.736825 463.60337 
L 72.731619 463.60337 
L 85.726414 454.768973 
L 111.716003 454.768973 
L 124.710798 450.351774 
L 176.689976 450.351774 
L 189.684771 441.517377 
L 202.679566 434.891579 
L 215.67436 434.891579 
L 228.669155 432.68298 
L 254.658744 432.68298 
L 267.653539 426.057182 
L 293.643128 421.639984 
L 306.637922 415.014186 
L 345.622306 415.014186 
L 358.617101 412.805587 
L 384.60669 412.805587 
L 397.601485 410.596988 
L 410.596279 410.596988 
L 449.580663 403.97119 
L 462.575458 397.345392 
L 488.565047 397.345392 
L 501.559842 392.928194 
L 514.554636 390.719594 
L 527.549431 390.719594 
L 540.544226 386.302396 
L 566.533815 386.302396 
L 579.528609 384.093797 
L 618.512993 384.093797 
L 631.507788 381.885197 
L 644.502582 377.467999 
L 670.492172 377.467999 
L 683.486966 381.885197 
L 696.481761 384.093797 
L 735.466145 384.093797 
L 748.460939 386.302396 
L 774.450529 386.302396 
L 787.445323 390.719594 
L 800.440118 390.719594 
L 813.434913 392.928194 
L 826.429707 397.345392 
L 852.419296 397.345392 
L 865.414091 403.97119 
L 904.398475 410.596988 
L 917.393269 410.596988 
L 930.388064 412.805587 
L 956.377653 412.805587 
L 969.372448 415.014186 
L 1002.52 415.014186 
L 1002.52 415.014186 
" clip-path="url(#p378671b0cf)" style="fill: none; stroke: #000000; stroke-linecap: square"/>
   </g>
   <g id="line2d_24">
    <path d="M -1 487.177815 
L 7.757646 485.689362 
L 20.752441 474.646366 
L 33.747236 470.229168 
L 59.736825 465.811969 
L 72.731619 465.811969 
L 85.726414 463.60337 
L 98.721209 463.60337 
L 111.716003 459.186171 
L 150.700387 459.186171 
L 163.695182 456.977572 
L 176.689976 452.560374 
L 202.679566 452.560374 
L 241.663949 439.308778 
L 254.658744 437.100179 
L 293.643128 437.100179 
L 319.632717 428.265782 
L 345.622306 423.848583 
L 358.617101 423.848583 
L 371.611896 421.639984 
L 410.596279 421.639984 
L 423.591074 415.014186 
L 436.585869 415.014186 
L 449.580663 410.596988 
L 475.570252 410.596988 
L 488.565047 406.179789 
L 527.549431 399.553991 
L 540.544226 395.136793 
L 553.53902 395.136793 
L 566.533815 388.510995 
L 631.507788 388.510995 
L 644.502582 386.302396 
L 657.497377 379.676598 
L 670.492172 386.302396 
L 683.486966 388.510995 
L 748.460939 388.510995 
L 761.455734 395.136793 
L 774.450529 395.136793 
L 787.445323 399.553991 
L 826.429707 406.179789 
L 839.424502 410.596988 
L 865.414091 410.596988 
L 878.408886 415.014186 
L 891.40368 415.014186 
L 904.398475 421.639984 
L 943.382859 421.639984 
L 956.377653 423.848583 
L 969.372448 423.848583 
L 995.362037 428.265782 
L 1002.52 430.698921 
L 1002.52 430.698921 
" clip-path="url(#p378671b0cf)" style="fill: none; stroke: #000000; stroke-linecap: square"/>
   </g>
   <g id="line2d_25">
    <path d="M -1 491.595013 
L 7.757646 490.106561 
L 20.752441 490.106561 
L 33.747236 487.897962 
L 46.74203 487.897962 
L 59.736825 483.480763 
L 72.731619 483.480763 
L 85.726414 474.646366 
L 111.716003 465.811969 
L 150.700387 459.186171 
L 163.695182 459.186171 
L 189.684771 454.768973 
L 215.67436 454.768973 
L 228.669155 450.351774 
L 254.658744 445.934576 
L 267.653539 441.517377 
L 280.648333 441.517377 
L 293.643128 439.308778 
L 319.632717 439.308778 
L 384.60669 428.265782 
L 397.601485 428.265782 
L 410.596279 421.639984 
L 436.585869 421.639984 
L 449.580663 417.222785 
L 475.570252 417.222785 
L 514.554636 410.596988 
L 540.544226 410.596988 
L 553.53902 408.388388 
L 566.533815 401.762591 
L 592.523404 401.762591 
L 605.518199 397.345392 
L 631.507788 397.345392 
L 644.502582 395.136793 
L 657.497377 390.719594 
L 670.492172 395.136793 
L 683.486966 397.345392 
L 709.476556 397.345392 
L 722.47135 401.762591 
L 748.460939 401.762591 
L 761.455734 408.388388 
L 774.450529 410.596988 
L 800.440118 410.596988 
L 839.424502 417.222785 
L 865.414091 417.222785 
L 878.408886 421.639984 
L 904.398475 421.639984 
L 917.393269 428.265782 
L 930.388064 428.265782 
L 995.362037 439.308778 
L 1002.52 439.308778 
L 1002.52 439.308778 
" clip-path="url(#p378671b0cf)" style="fill: none; stroke: #000000; stroke-linecap: square"/>
   </g>
   <g id="line2d_26">
    <path d="M -1 496.732359 
L 20.752441 496.732359 
L 33.747236 492.31516 
L 59.736825 487.897962 
L 85.726414 487.897962 
L 98.721209 481.272164 
L 111.716003 481.272164 
L 124.710798 474.646366 
L 137.705592 470.229168 
L 176.689976 463.60337 
L 189.684771 463.60337 
L 202.679566 461.394771 
L 215.67436 461.394771 
L 228.669155 456.977572 
L 241.663949 454.768973 
L 254.658744 454.768973 
L 267.653539 450.351774 
L 293.643128 450.351774 
L 306.637922 443.725976 
L 332.627512 439.308778 
L 371.611896 439.308778 
L 384.60669 437.100179 
L 410.596279 437.100179 
L 423.591074 423.848583 
L 501.559842 423.848583 
L 514.554636 419.431385 
L 527.549431 410.596988 
L 566.533815 410.596988 
L 579.528609 406.179789 
L 592.523404 406.179789 
L 605.518199 403.97119 
L 618.512993 403.97119 
L 631.507788 397.345392 
L 683.486966 397.345392 
L 696.481761 403.97119 
L 709.476556 403.97119 
L 722.47135 406.179789 
L 735.466145 406.179789 
L 748.460939 410.596988 
L 787.445323 410.596988 
L 800.440118 419.431385 
L 813.434913 423.848583 
L 891.40368 423.848583 
L 904.398475 437.100179 
L 930.388064 437.100179 
L 943.382859 439.308778 
L 982.367243 439.308778 
L 1002.52 442.733947 
L 1002.52 442.733947 
" clip-path="url(#p378671b0cf)" style="fill: none; stroke: #000000; stroke-linecap: square"/>
   </g>
   <g id="line2d_27">
    <path d="M -1 503.358156 
L 7.757646 503.358156 
L 20.752441 498.940958 
L 59.736825 492.31516 
L 85.726414 492.31516 
L 98.721209 487.897962 
L 111.716003 487.897962 
L 124.710798 485.689362 
L 137.705592 485.689362 
L 150.700387 483.480763 
L 176.689976 483.480763 
L 189.684771 476.854965 
L 202.679566 474.646366 
L 215.67436 468.020568 
L 228.669155 465.811969 
L 241.663949 465.811969 
L 254.658744 463.60337 
L 267.653539 456.977572 
L 280.648333 456.977572 
L 293.643128 454.768973 
L 306.637922 454.768973 
L 319.632717 452.560374 
L 332.627512 452.560374 
L 358.617101 448.143175 
L 371.611896 448.143175 
L 384.60669 443.725976 
L 397.601485 443.725976 
L 410.596279 439.308778 
L 423.591074 439.308778 
L 436.585869 432.68298 
L 462.575458 428.265782 
L 475.570252 423.848583 
L 540.544226 423.848583 
L 553.53902 415.014186 
L 579.528609 410.596988 
L 592.523404 410.596988 
L 605.518199 406.179789 
L 709.476556 406.179789 
L 722.47135 410.596988 
L 735.466145 410.596988 
L 761.455734 415.014186 
L 774.450529 423.848583 
L 839.424502 423.848583 
L 852.419296 428.265782 
L 878.408886 432.68298 
L 891.40368 439.308778 
L 904.398475 439.308778 
L 917.393269 443.725976 
L 930.388064 443.725976 
L 943.382859 448.143175 
L 956.377653 448.143175 
L 982.367243 452.560374 
L 995.362037 452.560374 
L 1002.52 453.776943 
L 1002.52 453.776943 
" clip-path="url(#p378671b0cf)" style="fill: none; stroke: #000000; stroke-linecap: square"/>
   </g>
   <g id="line2d_28">
    <path d="M -1 511.472406 
L 7.757646 509.983954 
L 33.747236 509.983954 
L 46.74203 505.566756 
L 59.736825 503.358156 
L 72.731619 498.940958 
L 85.726414 498.940958 
L 98.721209 494.523759 
L 111.716003 487.897962 
L 176.689976 487.897962 
L 189.684771 483.480763 
L 202.679566 476.854965 
L 215.67436 476.854965 
L 228.669155 472.437767 
L 241.663949 472.437767 
L 254.658744 465.811969 
L 280.648333 465.811969 
L 293.643128 461.394771 
L 306.637922 461.394771 
L 319.632717 459.186171 
L 332.627512 454.768973 
L 371.611896 454.768973 
L 384.60669 450.351774 
L 397.601485 450.351774 
L 449.580663 441.517377 
L 475.570252 441.517377 
L 488.565047 439.308778 
L 514.554636 430.474381 
L 527.549431 430.474381 
L 566.533815 423.848583 
L 579.528609 419.431385 
L 592.523404 419.431385 
L 605.518199 415.014186 
L 618.512993 415.014186 
L 657.497377 408.388388 
L 696.481761 415.014186 
L 709.476556 415.014186 
L 722.47135 419.431385 
L 735.466145 419.431385 
L 748.460939 423.848583 
L 787.445323 430.474381 
L 800.440118 430.474381 
L 826.429707 439.308778 
L 839.424502 441.517377 
L 865.414091 441.517377 
L 917.393269 450.351774 
L 930.388064 450.351774 
L 943.382859 454.768973 
L 982.367243 454.768973 
L 995.362037 459.186171 
L 1002.52 460.402741 
L 1002.52 460.402741 
" clip-path="url(#p378671b0cf)" style="fill: none; stroke: #000000; stroke-linecap: square"/>
   </g>
   <g id="line2d_29">
    <path d="M -1 514.401153 
L 20.752441 514.401153 
L 46.74203 509.983954 
L 59.736825 509.983954 
L 72.731619 505.566756 
L 98.721209 505.566756 
L 111.716003 498.940958 
L 124.710798 494.523759 
L 176.689976 494.523759 
L 189.684771 490.106561 
L 202.679566 490.106561 
L 215.67436 485.689362 
L 241.663949 481.272164 
L 254.658744 476.854965 
L 267.653539 474.646366 
L 293.643128 474.646366 
L 306.637922 468.020568 
L 319.632717 468.020568 
L 332.627512 463.60337 
L 345.622306 456.977572 
L 358.617101 454.768973 
L 384.60669 454.768973 
L 423.591074 448.143175 
L 449.580663 448.143175 
L 462.575458 445.934576 
L 488.565047 445.934576 
L 501.559842 441.517377 
L 514.554636 439.308778 
L 553.53902 439.308778 
L 566.533815 437.100179 
L 605.518199 437.100179 
L 618.512993 434.891579 
L 631.507788 434.891579 
L 644.502582 430.474381 
L 670.492172 430.474381 
L 683.486966 434.891579 
L 696.481761 434.891579 
L 709.476556 437.100179 
L 748.460939 437.100179 
L 761.455734 439.308778 
L 800.440118 439.308778 
L 813.434913 441.517377 
L 826.429707 445.934576 
L 852.419296 445.934576 
L 865.414091 448.143175 
L 891.40368 448.143175 
L 930.388064 454.768973 
L 956.377653 454.768973 
L 969.372448 456.977572 
L 982.367243 463.60337 
L 995.362037 468.020568 
L 1002.52 468.020568 
L 1002.52 468.020568 
" clip-path="url(#p378671b0cf)" style="fill: none; stroke: #000000; stroke-linecap: square"/>
   </g>
   <g id="line2d_30">
    <path d="M -1 520.306804 
L 33.747236 514.401153 
L 46.74203 514.401153 
L 85.726414 507.775355 
L 98.721209 507.775355 
L 137.705592 501.149557 
L 176.689976 501.149557 
L 189.684771 498.940958 
L 202.679566 494.523759 
L 215.67436 492.31516 
L 228.669155 487.897962 
L 241.663949 485.689362 
L 267.653539 485.689362 
L 280.648333 481.272164 
L 306.637922 481.272164 
L 319.632717 472.437767 
L 332.627512 472.437767 
L 345.622306 470.229168 
L 384.60669 456.977572 
L 397.601485 456.977572 
L 410.596279 454.768973 
L 436.585869 454.768973 
L 462.575458 450.351774 
L 514.554636 450.351774 
L 527.549431 445.934576 
L 553.53902 445.934576 
L 566.533815 441.517377 
L 592.523404 437.100179 
L 631.507788 437.100179 
L 644.502582 434.891579 
L 670.492172 434.891579 
L 683.486966 437.100179 
L 722.47135 437.100179 
L 748.460939 441.517377 
L 761.455734 445.934576 
L 787.445323 445.934576 
L 800.440118 450.351774 
L 852.419296 450.351774 
L 878.408886 454.768973 
L 904.398475 454.768973 
L 917.393269 456.977572 
L 930.388064 456.977572 
L 969.372448 470.229168 
L 982.367243 472.437767 
L 995.362037 472.437767 
L 1002.52 477.304045 
L 1002.52 477.304045 
" clip-path="url(#p378671b0cf)" style="fill: none; stroke: #000000; stroke-linecap: square"/>
   </g>
   <g id="line2d_31">
    <path d="M -1 524.724002 
L 20.752441 521.026951 
L 59.736825 521.026951 
L 72.731619 514.401153 
L 111.716003 514.401153 
L 124.710798 512.192554 
L 137.705592 512.192554 
L 150.700387 505.566756 
L 163.695182 503.358156 
L 202.679566 503.358156 
L 215.67436 501.149557 
L 228.669155 501.149557 
L 241.663949 494.523759 
L 267.653539 494.523759 
L 293.643128 490.106561 
L 319.632717 481.272164 
L 332.627512 481.272164 
L 345.622306 474.646366 
L 384.60669 468.020568 
L 410.596279 468.020568 
L 423.591074 465.811969 
L 436.585869 459.186171 
L 449.580663 459.186171 
L 488.565047 452.560374 
L 501.559842 452.560374 
L 514.554636 450.351774 
L 540.544226 450.351774 
L 592.523404 441.517377 
L 618.512993 441.517377 
L 631.507788 439.308778 
L 644.502582 439.308778 
L 657.497377 434.891579 
L 670.492172 439.308778 
L 683.486966 439.308778 
L 696.481761 441.517377 
L 722.47135 441.517377 
L 774.450529 450.351774 
L 800.440118 450.351774 
L 813.434913 452.560374 
L 826.429707 452.560374 
L 865.414091 459.186171 
L 878.408886 459.186171 
L 891.40368 465.811969 
L 904.398475 468.020568 
L 930.388064 468.020568 
L 969.372448 474.646366 
L 982.367243 481.272164 
L 995.362037 481.272164 
L 1002.52 483.705303 
L 1002.52 483.705303 
" clip-path="url(#p378671b0cf)" style="fill: none; stroke: #000000; stroke-linecap: square"/>
   </g>
   <g id="line2d_32">
    <path d="M -1 533.606557 
L 7.757646 527.652748 
L 46.74203 521.026951 
L 85.726414 521.026951 
L 98.721209 516.609752 
L 137.705592 516.609752 
L 150.700387 514.401153 
L 163.695182 514.401153 
L 176.689976 505.566756 
L 189.684771 503.358156 
L 215.67436 503.358156 
L 228.669155 501.149557 
L 241.663949 501.149557 
L 254.658744 496.732359 
L 267.653539 496.732359 
L 280.648333 494.523759 
L 293.643128 494.523759 
L 306.637922 492.31516 
L 332.627512 492.31516 
L 345.622306 487.897962 
L 371.611896 487.897962 
L 397.601485 479.063565 
L 410.596279 476.854965 
L 475.570252 476.854965 
L 488.565047 474.646366 
L 514.554636 465.811969 
L 527.549431 459.186171 
L 566.533815 459.186171 
L 579.528609 450.351774 
L 605.518199 450.351774 
L 618.512993 448.143175 
L 631.507788 448.143175 
L 657.497377 439.308778 
L 683.486966 448.143175 
L 696.481761 448.143175 
L 709.476556 450.351774 
L 735.466145 450.351774 
L 748.460939 459.186171 
L 787.445323 459.186171 
L 800.440118 465.811969 
L 826.429707 474.646366 
L 839.424502 476.854965 
L 904.398475 476.854965 
L 917.393269 479.063565 
L 943.382859 487.897962 
L 969.372448 487.897962 
L 982.367243 492.31516 
L 1002.52 492.31516 
L 1002.52 492.31516 
" clip-path="url(#p378671b0cf)" style="fill: none; stroke: #000000; stroke-linecap: square"/>
   </g>
   <g id="line2d_33">
    <path d="M -1 540.952502 
L 7.757646 536.487145 
L 20.752441 536.487145 
L 46.74203 532.069947 
L 59.736825 532.069947 
L 72.731619 527.652748 
L 98.721209 527.652748 
L 124.710798 523.23555 
L 150.700387 523.23555 
L 163.695182 516.609752 
L 189.684771 512.192554 
L 202.679566 512.192554 
L 215.67436 505.566756 
L 254.658744 505.566756 
L 267.653539 501.149557 
L 280.648333 498.940958 
L 293.643128 498.940958 
L 306.637922 496.732359 
L 319.632717 496.732359 
L 332.627512 492.31516 
L 358.617101 492.31516 
L 384.60669 487.897962 
L 436.585869 487.897962 
L 449.580663 485.689362 
L 462.575458 485.689362 
L 501.559842 479.063565 
L 514.554636 474.646366 
L 579.528609 474.646366 
L 592.523404 470.229168 
L 605.518199 470.229168 
L 618.512993 468.020568 
L 696.481761 468.020568 
L 709.476556 470.229168 
L 722.47135 470.229168 
L 735.466145 474.646366 
L 800.440118 474.646366 
L 813.434913 479.063565 
L 852.419296 485.689362 
L 865.414091 485.689362 
L 878.408886 487.897962 
L 930.388064 487.897962 
L 956.377653 492.31516 
L 982.367243 492.31516 
L 995.362037 496.732359 
L 1002.52 496.732359 
L 1002.52 496.732359 
" clip-path="url(#p378671b0cf)" style="fill: none; stroke: #000000; stroke-linecap: square"/>
   </g>
   <g id="line2d_34">
    <path d="M -1 548.298447 
L 7.757646 545.321542 
L 20.752441 543.112943 
L 33.747236 538.695745 
L 46.74203 538.695745 
L 59.736825 536.487145 
L 72.731619 536.487145 
L 111.716003 529.861348 
L 124.710798 525.444149 
L 163.695182 525.444149 
L 176.689976 523.23555 
L 189.684771 523.23555 
L 202.679566 514.401153 
L 228.669155 514.401153 
L 241.663949 512.192554 
L 254.658744 512.192554 
L 267.653539 509.983954 
L 280.648333 509.983954 
L 293.643128 507.775355 
L 306.637922 507.775355 
L 319.632717 505.566756 
L 332.627512 501.149557 
L 345.622306 494.523759 
L 358.617101 494.523759 
L 384.60669 490.106561 
L 449.580663 490.106561 
L 462.575458 487.897962 
L 475.570252 487.897962 
L 488.565047 483.480763 
L 501.559842 483.480763 
L 540.544226 476.854965 
L 579.528609 476.854965 
L 592.523404 474.646366 
L 618.512993 474.646366 
L 631.507788 468.020568 
L 683.486966 468.020568 
L 696.481761 474.646366 
L 722.47135 474.646366 
L 735.466145 476.854965 
L 774.450529 476.854965 
L 813.434913 483.480763 
L 826.429707 483.480763 
L 839.424502 487.897962 
L 852.419296 487.897962 
L 865.414091 490.106561 
L 930.388064 490.106561 
L 956.377653 494.523759 
L 969.372448 494.523759 
L 982.367243 501.149557 
L 995.362037 505.566756 
L 1002.52 506.783325 
L 1002.52 506.783325 
" clip-path="url(#p378671b0cf)" style="fill: none; stroke: #000000; stroke-linecap: square"/>
   </g>
   <g id="line2d_35">
    <path d="M -1 553.435792 
L 7.757646 551.94734 
L 20.752441 547.530142 
L 33.747236 547.530142 
L 46.74203 545.321542 
L 59.736825 540.904344 
L 72.731619 540.904344 
L 85.726414 538.695745 
L 98.721209 538.695745 
L 111.716003 532.069947 
L 137.705592 527.652748 
L 189.684771 527.652748 
L 202.679566 525.444149 
L 215.67436 525.444149 
L 241.663949 516.609752 
L 267.653539 516.609752 
L 293.643128 512.192554 
L 306.637922 507.775355 
L 332.627512 507.775355 
L 345.622306 505.566756 
L 358.617101 505.566756 
L 384.60669 501.149557 
L 410.596279 501.149557 
L 423.591074 496.732359 
L 436.585869 494.523759 
L 475.570252 494.523759 
L 488.565047 492.31516 
L 514.554636 492.31516 
L 527.549431 487.897962 
L 592.523404 476.854965 
L 631.507788 476.854965 
L 644.502582 474.646366 
L 670.492172 474.646366 
L 683.486966 476.854965 
L 722.47135 476.854965 
L 787.445323 487.897962 
L 800.440118 492.31516 
L 826.429707 492.31516 
L 839.424502 494.523759 
L 878.408886 494.523759 
L 891.40368 496.732359 
L 904.398475 501.149557 
L 930.388064 501.149557 
L 956.377653 505.566756 
L 969.372448 505.566756 
L 982.367243 507.775355 
L 1002.52 507.775355 
L 1002.52 507.775355 
" clip-path="url(#p378671b0cf)" style="fill: none; stroke: #000000; stroke-linecap: square"/>
   </g>
   <g id="line2d_36">
    <path d="M -1 560.781737 
L 7.757646 560.781737 
L 20.752441 551.94734 
L 33.747236 547.530142 
L 59.736825 547.530142 
L 72.731619 543.112943 
L 98.721209 543.112943 
L 150.700387 534.278546 
L 163.695182 534.278546 
L 176.689976 529.861348 
L 202.679566 529.861348 
L 228.669155 525.444149 
L 254.658744 525.444149 
L 280.648333 521.026951 
L 319.632717 521.026951 
L 332.627512 518.818351 
L 345.622306 509.983954 
L 397.601485 509.983954 
L 410.596279 505.566756 
L 423.591074 505.566756 
L 462.575458 498.940958 
L 501.559842 498.940958 
L 514.554636 496.732359 
L 527.549431 496.732359 
L 540.544226 490.106561 
L 553.53902 487.897962 
L 566.533815 483.480763 
L 631.507788 483.480763 
L 644.502582 481.272164 
L 657.497377 476.854965 
L 670.492172 481.272164 
L 683.486966 483.480763 
L 748.460939 483.480763 
L 761.455734 487.897962 
L 774.450529 490.106561 
L 787.445323 496.732359 
L 800.440118 496.732359 
L 813.434913 498.940958 
L 852.419296 498.940958 
L 891.40368 505.566756 
L 904.398475 505.566756 
L 917.393269 509.983954 
L 969.372448 509.983954 
L 982.367243 518.818351 
L 995.362037 521.026951 
L 1002.52 521.026951 
L 1002.52 521.026951 
" clip-path="url(#p378671b0cf)" style="fill: none; stroke: #000000; stroke-linecap: square"/>
   </g>
   <g id="line2d_37">
    <path d="M -1 560.781737 
L 20.752441 560.781737 
L 33.747236 556.364539 
L 46.74203 549.738741 
L 72.731619 549.738741 
L 111.716003 543.112943 
L 124.710798 543.112943 
L 137.705592 538.695745 
L 176.689976 538.695745 
L 189.684771 536.487145 
L 228.669155 536.487145 
L 254.658744 527.652748 
L 267.653539 525.444149 
L 293.643128 525.444149 
L 306.637922 523.23555 
L 345.622306 523.23555 
L 358.617101 518.818351 
L 371.611896 516.609752 
L 410.596279 516.609752 
L 423.591074 514.401153 
L 436.585869 514.401153 
L 449.580663 509.983954 
L 462.575458 509.983954 
L 475.570252 505.566756 
L 488.565047 505.566756 
L 514.554636 501.149557 
L 527.549431 501.149557 
L 540.544226 498.940958 
L 553.53902 494.523759 
L 566.533815 492.31516 
L 631.507788 492.31516 
L 657.497377 483.480763 
L 683.486966 492.31516 
L 748.460939 492.31516 
L 761.455734 494.523759 
L 774.450529 498.940958 
L 787.445323 501.149557 
L 800.440118 501.149557 
L 826.429707 505.566756 
L 839.424502 505.566756 
L 852.419296 509.983954 
L 865.414091 509.983954 
L 878.408886 514.401153 
L 891.40368 514.401153 
L 904.398475 516.609752 
L 943.382859 516.609752 
L 956.377653 518.818351 
L 969.372448 523.23555 
L 1002.52 523.23555 
L 1002.52 523.23555 
" clip-path="url(#p378671b0cf)" style="fill: none; stroke: #000000; stroke-linecap: square"/>
   </g>
   <g id="line2d_38">
    <path d="M -1 565.198936 
L 7.757646 565.198936 
L 33.747236 560.781737 
L 46.74203 556.364539 
L 85.726414 549.738741 
L 98.721209 549.738741 
L 111.716003 547.530142 
L 124.710798 547.530142 
L 137.705592 543.112943 
L 150.700387 543.112943 
L 163.695182 540.904344 
L 202.679566 540.904344 
L 215.67436 538.695745 
L 228.669155 538.695745 
L 241.663949 536.487145 
L 267.653539 536.487145 
L 280.648333 529.861348 
L 293.643128 527.652748 
L 306.637922 527.652748 
L 319.632717 525.444149 
L 332.627512 525.444149 
L 345.622306 523.23555 
L 371.611896 523.23555 
L 384.60669 518.818351 
L 410.596279 518.818351 
L 423.591074 516.609752 
L 436.585869 516.609752 
L 449.580663 514.401153 
L 462.575458 514.401153 
L 488.565047 509.983954 
L 501.559842 509.983954 
L 514.554636 505.566756 
L 566.533815 505.566756 
L 579.528609 503.358156 
L 618.512993 503.358156 
L 644.502582 498.940958 
L 657.497377 487.897962 
L 670.492172 498.940958 
L 696.481761 503.358156 
L 735.466145 503.358156 
L 748.460939 505.566756 
L 800.440118 505.566756 
L 813.434913 509.983954 
L 826.429707 509.983954 
L 852.419296 514.401153 
L 865.414091 514.401153 
L 878.408886 516.609752 
L 891.40368 516.609752 
L 904.398475 518.818351 
L 930.388064 518.818351 
L 943.382859 523.23555 
L 969.372448 523.23555 
L 982.367243 525.444149 
L 995.362037 525.444149 
L 1002.52 526.660719 
L 1002.52 526.660719 
" clip-path="url(#p378671b0cf)" style="fill: none; stroke: #000000; stroke-linecap: square"/>
   </g>
   <g id="line2d_39">
    <path d="M 39.41778 565.48 
L 46.74203 562.990336 
L 59.736825 562.990336 
L 85.726414 558.573138 
L 98.721209 558.573138 
L 137.705592 551.94734 
L 150.700387 547.530142 
L 202.679566 547.530142 
L 228.669155 543.112943 
L 241.663949 543.112943 
L 254.658744 540.904344 
L 267.653539 540.904344 
L 293.643128 536.487145 
L 306.637922 536.487145 
L 319.632717 534.278546 
L 332.627512 534.278546 
L 371.611896 527.652748 
L 384.60669 523.23555 
L 397.601485 521.026951 
L 423.591074 521.026951 
L 436.585869 516.609752 
L 501.559842 516.609752 
L 514.554636 514.401153 
L 540.544226 514.401153 
L 553.53902 512.192554 
L 566.533815 505.566756 
L 592.523404 505.566756 
L 605.518199 503.358156 
L 709.476556 503.358156 
L 722.47135 505.566756 
L 748.460939 505.566756 
L 761.455734 512.192554 
L 774.450529 514.401153 
L 800.440118 514.401153 
L 813.434913 516.609752 
L 878.408886 516.609752 
L 891.40368 521.026951 
L 917.393269 521.026951 
L 930.388064 523.23555 
L 943.382859 527.652748 
L 982.367243 534.278546 
L 995.362037 534.278546 
L 1002.52 535.495116 
L 1002.52 535.495116 
" clip-path="url(#p378671b0cf)" style="fill: none; stroke: #000000; stroke-linecap: square"/>
   </g>
   <g id="line2d_40">
    <path d="M 71.077914 565.48 
L 72.731619 565.198936 
L 85.726414 560.781737 
L 98.721209 560.781737 
L 137.705592 554.155939 
L 150.700387 554.155939 
L 163.695182 549.738741 
L 202.679566 549.738741 
L 215.67436 547.530142 
L 228.669155 547.530142 
L 241.663949 543.112943 
L 267.653539 543.112943 
L 293.643128 538.695745 
L 319.632717 538.695745 
L 332.627512 534.278546 
L 345.622306 534.278546 
L 371.611896 529.861348 
L 449.580663 529.861348 
L 462.575458 527.652748 
L 475.570252 527.652748 
L 501.559842 523.23555 
L 514.554636 523.23555 
L 527.549431 518.818351 
L 566.533815 518.818351 
L 579.528609 514.401153 
L 592.523404 514.401153 
L 618.512993 509.983954 
L 644.502582 509.983954 
L 657.497377 505.566756 
L 670.492172 509.983954 
L 696.481761 509.983954 
L 722.47135 514.401153 
L 735.466145 514.401153 
L 748.460939 518.818351 
L 787.445323 518.818351 
L 800.440118 523.23555 
L 813.434913 523.23555 
L 839.424502 527.652748 
L 852.419296 527.652748 
L 865.414091 529.861348 
L 943.382859 529.861348 
L 969.372448 534.278546 
L 982.367243 534.278546 
L 995.362037 538.695745 
L 1002.52 538.695745 
L 1002.52 538.695745 
" clip-path="url(#p378671b0cf)" style="fill: none; stroke: #000000; stroke-linecap: square"/>
   </g>
   <g id="line2d_41">
    <path d="M 106.187344 565.48 
L 111.716003 560.781737 
L 124.710798 558.573138 
L 150.700387 558.573138 
L 163.695182 556.364539 
L 176.689976 556.364539 
L 189.684771 549.738741 
L 215.67436 549.738741 
L 228.669155 547.530142 
L 241.663949 547.530142 
L 254.658744 545.321542 
L 267.653539 545.321542 
L 280.648333 543.112943 
L 306.637922 543.112943 
L 345.622306 536.487145 
L 371.611896 536.487145 
L 384.60669 532.069947 
L 397.601485 529.861348 
L 488.565047 529.861348 
L 501.559842 527.652748 
L 514.554636 523.23555 
L 592.523404 523.23555 
L 605.518199 516.609752 
L 618.512993 514.401153 
L 644.502582 514.401153 
L 657.497377 512.192554 
L 670.492172 514.401153 
L 696.481761 514.401153 
L 709.476556 516.609752 
L 722.47135 523.23555 
L 800.440118 523.23555 
L 813.434913 527.652748 
L 826.429707 529.861348 
L 917.393269 529.861348 
L 930.388064 532.069947 
L 943.382859 536.487145 
L 969.372448 536.487145 
L 1002.52 542.120913 
L 1002.52 542.120913 
" clip-path="url(#p378671b0cf)" style="fill: none; stroke: #000000; stroke-linecap: square"/>
   </g>
   <g id="line2d_42">
    <path d="M 149.046682 565.48 
L 163.695182 562.990336 
L 176.689976 556.364539 
L 189.684771 556.364539 
L 202.679566 549.738741 
L 254.658744 549.738741 
L 280.648333 545.321542 
L 293.643128 545.321542 
L 306.637922 543.112943 
L 332.627512 543.112943 
L 345.622306 540.904344 
L 358.617101 536.487145 
L 410.596279 536.487145 
L 423.591074 534.278546 
L 488.565047 534.278546 
L 501.559842 532.069947 
L 514.554636 532.069947 
L 527.549431 527.652748 
L 540.544226 527.652748 
L 553.53902 525.444149 
L 566.533815 525.444149 
L 579.528609 523.23555 
L 631.507788 523.23555 
L 657.497377 518.818351 
L 683.486966 523.23555 
L 735.466145 523.23555 
L 748.460939 525.444149 
L 761.455734 525.444149 
L 774.450529 527.652748 
L 787.445323 527.652748 
L 800.440118 532.069947 
L 813.434913 532.069947 
L 826.429707 534.278546 
L 891.40368 534.278546 
L 904.398475 536.487145 
L 956.377653 536.487145 
L 969.372448 540.904344 
L 982.367243 543.112943 
L 1002.52 543.112943 
L 1002.52 543.112943 
" clip-path="url(#p378671b0cf)" style="fill: none; stroke: #000000; stroke-linecap: square"/>
   </g>
   <g id="line2d_43">
    <path d="M 162.041476 565.48 
L 163.695182 565.198936 
L 176.689976 565.198936 
L 189.684771 562.990336 
L 215.67436 562.990336 
L 241.663949 554.155939 
L 254.658744 554.155939 
L 267.653539 551.94734 
L 293.643128 551.94734 
L 306.637922 549.738741 
L 319.632717 545.321542 
L 345.622306 545.321542 
L 358.617101 540.904344 
L 384.60669 540.904344 
L 397.601485 538.695745 
L 488.565047 538.695745 
L 501.559842 536.487145 
L 514.554636 536.487145 
L 527.549431 532.069947 
L 566.533815 532.069947 
L 579.528609 529.861348 
L 631.507788 529.861348 
L 657.497377 525.444149 
L 683.486966 529.861348 
L 735.466145 529.861348 
L 748.460939 532.069947 
L 787.445323 532.069947 
L 800.440118 536.487145 
L 813.434913 536.487145 
L 826.429707 538.695745 
L 917.393269 538.695745 
L 930.388064 540.904344 
L 956.377653 540.904344 
L 969.372448 545.321542 
L 995.362037 545.321542 
L 1002.52 547.754682 
L 1002.52 547.754682 
" clip-path="url(#p378671b0cf)" style="fill: none; stroke: #000000; stroke-linecap: square"/>
   </g>
   <g id="line2d_44">
    <path d="M 221.344905 565.48 
L 241.663949 558.573138 
L 267.653539 558.573138 
L 280.648333 556.364539 
L 306.637922 556.364539 
L 319.632717 549.738741 
L 345.622306 549.738741 
L 384.60669 543.112943 
L 410.596279 543.112943 
L 436.585869 538.695745 
L 514.554636 538.695745 
L 527.549431 536.487145 
L 540.544226 536.487145 
L 553.53902 532.069947 
L 644.502582 532.069947 
L 657.497377 529.861348 
L 670.492172 532.069947 
L 761.455734 532.069947 
L 774.450529 536.487145 
L 787.445323 536.487145 
L 800.440118 538.695745 
L 878.408886 538.695745 
L 904.398475 543.112943 
L 930.388064 543.112943 
L 969.372448 549.738741 
L 995.362037 549.738741 
L 1002.52 553.38845 
L 1002.52 553.38845 
" clip-path="url(#p378671b0cf)" style="fill: none; stroke: #000000; stroke-linecap: square"/>
   </g>
   <g id="line2d_45">
    <path d="M 260.329289 565.48 
L 267.653539 562.990336 
L 280.648333 560.781737 
L 293.643128 556.364539 
L 332.627512 556.364539 
L 345.622306 551.94734 
L 358.617101 551.94734 
L 371.611896 549.738741 
L 384.60669 549.738741 
L 410.596279 545.321542 
L 462.575458 545.321542 
L 475.570252 543.112943 
L 566.533815 543.112943 
L 579.528609 538.695745 
L 592.523404 536.487145 
L 618.512993 536.487145 
L 631.507788 534.278546 
L 683.486966 534.278546 
L 696.481761 536.487145 
L 722.47135 536.487145 
L 735.466145 538.695745 
L 748.460939 543.112943 
L 839.424502 543.112943 
L 852.419296 545.321542 
L 904.398475 545.321542 
L 930.388064 549.738741 
L 943.382859 549.738741 
L 956.377653 551.94734 
L 969.372448 551.94734 
L 982.367243 556.364539 
L 1002.52 556.364539 
L 1002.52 556.364539 
" clip-path="url(#p378671b0cf)" style="fill: none; stroke: #000000; stroke-linecap: square"/>
   </g>
   <g id="line2d_46">
    <path d="M 278.994628 565.48 
L 293.643128 562.990336 
L 332.627512 562.990336 
L 345.622306 558.573138 
L 371.611896 558.573138 
L 384.60669 556.364539 
L 397.601485 556.364539 
L 410.596279 551.94734 
L 488.565047 551.94734 
L 501.559842 549.738741 
L 514.554636 549.738741 
L 540.544226 545.321542 
L 605.518199 545.321542 
L 618.512993 543.112943 
L 631.507788 543.112943 
L 657.497377 538.695745 
L 683.486966 543.112943 
L 696.481761 543.112943 
L 709.476556 545.321542 
L 774.450529 545.321542 
L 800.440118 549.738741 
L 813.434913 549.738741 
L 826.429707 551.94734 
L 904.398475 551.94734 
L 917.393269 556.364539 
L 930.388064 556.364539 
L 943.382859 558.573138 
L 969.372448 558.573138 
L 982.367243 562.990336 
L 1002.52 562.990336 
L 1002.52 562.990336 
" clip-path="url(#p378671b0cf)" style="fill: none; stroke: #000000; stroke-linecap: square"/>
   </g>
   <g id="line2d_47">
    <path d="M 299.313672 565.48 
L 306.637922 562.990336 
L 371.611896 562.990336 
L 384.60669 558.573138 
L 397.601485 556.364539 
L 423.591074 556.364539 
L 436.585869 551.94734 
L 540.544226 551.94734 
L 566.533815 547.530142 
L 605.518199 547.530142 
L 618.512993 545.321542 
L 631.507788 545.321542 
L 644.502582 543.112943 
L 670.492172 543.112943 
L 683.486966 545.321542 
L 696.481761 545.321542 
L 709.476556 547.530142 
L 748.460939 547.530142 
L 774.450529 551.94734 
L 878.408886 551.94734 
L 891.40368 556.364539 
L 917.393269 556.364539 
L 930.388064 558.573138 
L 943.382859 562.990336 
L 1002.52 562.990336 
L 1002.52 562.990336 
" clip-path="url(#p378671b0cf)" style="fill: none; stroke: #000000; stroke-linecap: square"/>
   </g>
   <g id="line2d_48">
    <path d="M 340.739473 565.48 
L 345.622306 562.990336 
L 384.60669 562.990336 
L 397.601485 560.781737 
L 410.596279 560.781737 
L 423.591074 558.573138 
L 462.575458 558.573138 
L 475.570252 554.155939 
L 527.549431 554.155939 
L 540.544226 551.94734 
L 579.528609 551.94734 
L 592.523404 547.530142 
L 644.502582 547.530142 
L 657.497377 545.321542 
L 670.492172 547.530142 
L 722.47135 547.530142 
L 735.466145 551.94734 
L 774.450529 551.94734 
L 787.445323 554.155939 
L 839.424502 554.155939 
L 852.419296 558.573138 
L 891.40368 558.573138 
L 904.398475 560.781737 
L 917.393269 560.781737 
L 930.388064 562.990336 
L 969.372448 562.990336 
L 974.255281 565.48 
L 974.255281 565.48 
" clip-path="url(#p378671b0cf)" style="fill: none; stroke: #000000; stroke-linecap: square"/>
   </g>
   <g id="line2d_49">
    <path d="M 377.28244 565.48 
L 384.60669 562.990336 
L 397.601485 562.990336 
L 410.596279 560.781737 
L 423.591074 560.781737 
L 436.585869 558.573138 
L 475.570252 558.573138 
L 488.565047 556.364539 
L 553.53902 556.364539 
L 566.533815 554.155939 
L 631.507788 554.155939 
L 657.497377 549.738741 
L 683.486966 554.155939 
L 748.460939 554.155939 
L 761.455734 556.364539 
L 826.429707 556.364539 
L 839.424502 558.573138 
L 878.408886 558.573138 
L 891.40368 560.781737 
L 904.398475 560.781737 
L 917.393269 562.990336 
L 930.388064 562.990336 
L 937.712314 565.48 
L 937.712314 565.48 
" clip-path="url(#p378671b0cf)" style="fill: none; stroke: #000000; stroke-linecap: square"/>
   </g>
   <g id="line2d_50">
    <path d="M 421.937369 565.48 
L 436.585869 562.990336 
L 449.580663 562.990336 
L 462.575458 558.573138 
L 540.544226 558.573138 
L 553.53902 556.364539 
L 579.528609 556.364539 
L 592.523404 554.155939 
L 644.502582 554.155939 
L 657.497377 551.94734 
L 670.492172 554.155939 
L 722.47135 554.155939 
L 735.466145 556.364539 
L 761.455734 556.364539 
L 774.450529 558.573138 
L 852.419296 558.573138 
L 865.414091 562.990336 
L 878.408886 562.990336 
L 893.057386 565.48 
L 893.057386 565.48 
" clip-path="url(#p378671b0cf)" style="fill: none; stroke: #000000; stroke-linecap: square"/>
   </g>
   <g id="line2d_51">
    <path d="M 435.759016 565.48 
L 436.585869 565.198936 
L 501.559842 565.198936 
L 514.554636 562.990336 
L 527.549431 558.573138 
L 579.528609 558.573138 
L 592.523404 556.364539 
L 618.512993 556.364539 
L 631.507788 554.155939 
L 683.486966 554.155939 
L 696.481761 556.364539 
L 722.47135 556.364539 
L 735.466145 558.573138 
L 787.445323 558.573138 
L 800.440118 562.990336 
L 813.434913 565.198936 
L 878.408886 565.198936 
L 879.235738 565.48 
L 879.235738 565.48 
" clip-path="url(#p378671b0cf)" style="fill: none; stroke: #000000; stroke-linecap: square"/>
   </g>
   <g id="line2d_52">
    <path d="M 512.900931 565.48 
L 514.554636 565.198936 
L 553.53902 565.198936 
L 566.533815 558.573138 
L 618.512993 558.573138 
L 631.507788 556.364539 
L 644.502582 556.364539 
L 657.497377 554.155939 
L 670.492172 556.364539 
L 683.486966 556.364539 
L 696.481761 558.573138 
L 748.460939 558.573138 
L 761.455734 565.198936 
L 800.440118 565.198936 
L 802.093823 565.48 
L 802.093823 565.48 
" clip-path="url(#p378671b0cf)" style="fill: none; stroke: #000000; stroke-linecap: square"/>
   </g>
   <g id="line2d_53">
    <path d="M 574.645776 565.48 
L 579.528609 562.990336 
L 605.518199 562.990336 
L 631.507788 558.573138 
L 683.486966 558.573138 
L 709.476556 562.990336 
L 735.466145 562.990336 
L 740.348978 565.48 
L 740.348978 565.48 
" clip-path="url(#p378671b0cf)" style="fill: none; stroke: #000000; stroke-linecap: square"/>
   </g>
   <g id="line2d_54">
    <path d="M 616.859288 565.48 
L 618.512993 565.198936 
L 644.502582 565.198936 
L 657.497377 560.781737 
L 670.492172 565.198936 
L 696.481761 565.198936 
L 698.135466 565.48 
L 698.135466 565.48 
" clip-path="url(#p378671b0cf)" style="fill: none; stroke: #000000; stroke-linecap: square"/>
   </g>
   <g id="line2d_55">
    <path d="M 0 0 
" clip-path="url(#p378671b0cf)" style="fill: none; stroke: #000000; stroke-linecap: square"/>
   </g>
   <g id="line2d_56">
    <path d="M 0 0 
" clip-path="url(#p378671b0cf)" style="fill: none; stroke: #000000; stroke-linecap: square"/>
   </g>
   <g id="line2d_57">
    <path d="M 0 0 
" clip-path="url(#p378671b0cf)" style="fill: none; stroke: #000000; stroke-linecap: square"/>
   </g>
   <g id="line2d_58">
    <path d="M 0 0 
" clip-path="url(#p378671b0cf)" style="fill: none; stroke: #000000; stroke-linecap: square"/>
   </g>
   <g id="line2d_59">
    <path d="M 0 0 
" clip-path="url(#p378671b0cf)" style="fill: none; stroke: #000000; stroke-linecap: square"/>
   </g>
   <g id="line2d_60">
    <path d="M 0 0 
" clip-path="url(#p378671b0cf)" style="fill: none; stroke: #000000; stroke-linecap: square"/>
   </g>
   <g id="line2d_61">
    <path d="M 0 0 
" clip-path="url(#p378671b0cf)" style="fill: none; stroke: #000000; stroke-linecap: square"/>
   </g>
   <g id="line2d_62">
    <path d="M 0 0 
" clip-path="url(#p378671b0cf)" style="fill: none; stroke: #000000; stroke-linecap: square"/>
   </g>
   <g id="line2d_63">
    <path d="M 0 0 
" clip-path="url(#p378671b0cf)" style="fill: none; stroke: #000000; stroke-linecap: square"/>
   </g>
   <g id="line2d_64">
    <path d="M 0 0 
" clip-path="url(#p378671b0cf)" style="fill: none; stroke: #000000; stroke-linecap: square"/>
   </g>
   <g id="line2d_65">
    <path d="M 0 0 
" clip-path="url(#p378671b0cf)" style="fill: none; stroke: #000000; stroke-linecap: square"/>
   </g>
   <g id="line2d_66">
    <path d="M 0 0 
" clip-path="url(#p378671b0cf)" style="fill: none; stroke: #000000; stroke-linecap: square"/>
   </g>
   <g id="line2d_67">
    <path d="M 0 0 
" clip-path="url(#p378671b0cf)" style="fill: none; stroke: #000000; stroke-linecap: square"/>
   </g>
   <g id="line2d_68">
    <path d="M 0 0 
" clip-path="url(#p378671b0cf)" style="fill: none; stroke: #000000; stroke-linecap: square"/>
   </g>
   <g id="line2d_69">
    <path d="M 0 0 
" clip-path="url(#p378671b0cf)" style="fill: none; stroke: #000000; stroke-linecap: square"/>
   </g>
   <g id="line2d_70">
    <path d="M 0 0 
" clip-path="url(#p378671b0cf)" style="fill: none; stroke: #000000; stroke-linecap: square"/>
   </g>
   <g id="line2d_71">
    <path d="M 0 0 
" clip-path="url(#p378671b0cf)" style="fill: none; stroke: #000000; stroke-linecap: square"/>
   </g>
   <g id="line2d_72">
    <path d="M 0 0 
" clip-path="url(#p378671b0cf)" style="fill: none; stroke: #000000; stroke-linecap: square"/>
   </g>
   <g id="line2d_73">
    <path d="M 0 0 
" clip-path="url(#p378671b0cf)" style="fill: none; stroke: #000000; stroke-linecap: square"/>
   </g>
   <g id="patch_3">
    <path d="M 125.19 502.3872 
L 125.19 67.7376 
" style="fill: none; stroke: #000000; stroke-width: 0.8; stroke-linejoin: miter; stroke-linecap: square"/>
   </g>
   <g id="patch_4">
    <path d="M 901.368 502.3872 
L 901.368 67.7376 
" style="fill: none; stroke: #000000; stroke-width: 0.8; stroke-linejoin: miter; stroke-linecap: square"/>
   </g>
   <g id="patch_5">
    <path d="M 125.19 502.3872 
L 901.368 502.3872 
" style="fill: none; stroke: #000000; stroke-width: 0.8; stroke-linejoin: miter; stroke-linecap: square"/>
   </g>
   <g id="patch_6">
    <path d="M 125.19 67.7376 
L 901.368 67.7376 
" style="fill: none; stroke: #000000; stroke-width: 0.8; stroke-linejoin: miter; stroke-linecap: square"/>
   </g>
   <g id="text_14">
    <!-- Path Partitions (200 steps: 100D, 100R) -->
    <g transform="translate(394.575562 61.7376) scale(0.12 -0.12)">
     <defs>
      <path id="DejaVuSans-69" d="M 603 3500 
L 1178 3500 
L 1178 0 
L 603 0 
L 603 3500 
z
M 603 4863 
L 1178 4863 
L 1178 4134 
L 603 4134 
L 603 4863 
z
" transform="scale(0.015625)"/>
      <path id="DejaVuSans-73" d="M 2834 3397 
L 2834 2853 
Q 2591 2978 2328 3040 
Q 2066 3103 1784 3103 
Q 1356 3103 1142 2972 
Q 928 2841 928 2578 
Q 928 2378 1081 2264 
Q 1234 2150 1697 2047 
L 1894 2003 
Q 2506 1872 2764 1633 
Q 3022 1394 3022 966 
Q 3022 478 2636 193 
Q 2250 -91 1575 -91 
Q 1294 -91 989 -36 
Q 684 19 347 128 
L 347 722 
Q 666 556 975 473 
Q 1284 391 1588 391 
Q 1994 391 2212 530 
Q 2431 669 2431 922 
Q 2431 1156 2273 1281 
Q 2116 1406 1581 1522 
L 1381 1569 
Q 847 1681 609 1914 
Q 372 2147 372 2553 
Q 372 3047 722 3315 
Q 1072 3584 1716 3584 
Q 2034 3584 2315 3537 
Q 2597 3491 2834 3397 
z
" transform="scale(0.015625)"/>
      <path id="DejaVuSans-28" d="M 1984 4856 
Q 1566 4138 1362 3434 
Q 1159 2731 1159 2009 
Q 1159 1288 1364 580 
Q 1569 -128 1984 -844 
L 1484 -844 
Q 1016 -109 783 600 
Q 550 1309 550 2009 
Q 550 2706 781 3412 
Q 1013 4119 1484 4856 
L 1984 4856 
z
" transform="scale(0.015625)"/>
      <path id="DejaVuSans-3a" d="M 750 794 
L 1409 794 
L 1409 0 
L 750 0 
L 750 794 
z
M 750 3309 
L 1409 3309 
L 1409 2516 
L 750 2516 
L 750 3309 
z
" transform="scale(0.015625)"/>
      <path id="DejaVuSans-44" d="M 1259 4147 
L 1259 519 
L 2022 519 
Q 2988 519 3436 956 
Q 3884 1394 3884 2338 
Q 3884 3275 3436 3711 
Q 2988 4147 2022 4147 
L 1259 4147 
z
M 628 4666 
L 1925 4666 
Q 3281 4666 3915 4102 
Q 4550 3538 4550 2338 
Q 4550 1131 3912 565 
Q 3275 0 1925 0 
L 628 0 
L 628 4666 
z
" transform="scale(0.015625)"/>
      <path id="DejaVuSans-2c" d="M 750 794 
L 1409 794 
L 1409 256 
L 897 -744 
L 494 -744 
L 750 256 
L 750 794 
z
" transform="scale(0.015625)"/>
      <path id="DejaVuSans-29" d="M 513 4856 
L 1013 4856 
Q 1481 4119 1714 3412 
Q 1947 2706 1947 2009 
Q 1947 1309 1714 600 
Q 1481 -109 1013 -844 
L 513 -844 
Q 928 -128 1133 580 
Q 1338 1288 1338 2009 
Q 1338 2731 1133 3434 
Q 928 4138 513 4856 
z
" transform="scale(0.015625)"/>
     </defs>
     <use xlink:href="#DejaVuSans-50"/>
     <use xlink:href="#DejaVuSans-61" transform="translate(55.802734 0)"/>
     <use xlink:href="#DejaVuSans-74" transform="translate(117.082031 0)"/>
     <use xlink:href="#DejaVuSans-68" transform="translate(156.291016 0)"/>
     <use xlink:href="#DejaVuSans-20" transform="translate(219.669922 0)"/>
     <use xlink:href="#DejaVuSans-50" transform="translate(251.457031 0)"/>
     <use xlink:href="#DejaVuSans-61" transform="translate(307.259766 0)"/>
     <use xlink:href="#DejaVuSans-72" transform="translate(368.539062 0)"/>
     <use xlink:href="#DejaVuSans-74" transform="translate(409.652344 0)"/>
     <use xlink:href="#DejaVuSans-69" transform="translate(448.861328 0)"/>
     <use xlink:href="#DejaVuSans-74" transform="translate(476.644531 0)"/>
     <use xlink:href="#DejaVuSans-69" transform="translate(515.853516 0)"/>
     <use xlink:href="#DejaVuSans-6f" transform="translate(543.636719 0)"/>
     <use xlink:href="#DejaVuSans-6e" transform="translate(604.818359 0)"/>
     <use xlink:href="#DejaVuSans-73" transform="translate(668.197266 0)"/>
     <use xlink:href="#DejaVuSans-20" transform="translate(720.296875 0)"/>
     <use xlink:href="#DejaVuSans-28" transform="translate(752.083984 0)"/>
     <use xlink:href="#DejaVuSans-32" transform="translate(791.097656 0)"/>
     <use xlink:href="#DejaVuSans-30" transform="translate(854.720703 0)"/>
     <use xlink:href="#DejaVuSans-30" transform="translate(918.34375 0)"/>
     <use xlink:href="#DejaVuSans-20" transform="translate(981.966797 0)"/>
     <use xlink:href="#DejaVuSans-73" transform="translate(1013.753906 0)"/>
     <use xlink:href="#DejaVuSans-74" transform="translate(1065.853516 0)"/>
     <use xlink:href="#DejaVuSans-65" transform="translate(1105.0625 0)"/>
     <use xlink:href="#DejaVuSans-70" transform="translate(1166.585938 0)"/>
     <use xlink:href="#DejaVuSans-73" transform="translate(1230.0625 0)"/>
     <use xlink:href="#DejaVuSans-3a" transform="translate(1282.162109 0)"/>
     <use xlink:href="#DejaVuSans-20" transform="translate(1315.853516 0)"/>
     <use xlink:href="#DejaVuSans-31" transform="translate(1347.640625 0)"/>
     <use xlink:href="#DejaVuSans-30" transform="translate(1411.263672 0)"/>
     <use xlink:href="#DejaVuSans-30" transform="translate(1474.886719 0)"/>
     <use xlink:href="#DejaVuSans-44" transform="translate(1538.509766 0)"/>
     <use xlink:href="#DejaVuSans-2c" transform="translate(1615.511719 0)"/>
     <use xlink:href="#DejaVuSans-20" transform="translate(1647.298828 0)"/>
     <use xlink:href="#DejaVuSans-31" transform="translate(1679.085938 0)"/>
     <use xlink:href="#DejaVuSans-30" transform="translate(1742.708984 0)"/>
     <use xlink:href="#DejaVuSans-30" transform="translate(1806.332031 0)"/>
     <use xlink:href="#DejaVuSans-52" transform="translate(1869.955078 0)"/>
     <use xlink:href="#DejaVuSans-29" transform="translate(1939.4375 0)"/>
    </g>
   </g>
  </g>
 </g>
 <defs>
  <clipPath id="p378671b0cf">
   <rect x="125.19" y="67.7376" width="776.178" height="434.6496"/>
  </clipPath>
 </defs>
</svg>
